<svg width="24" height="24" viewBox="0 0 24 24" fill="none" xmlns="http://www.w3.org/2000/svg">
<g clip-path="url(#clip0_506_1652)">
<path d="M12 23.25C14.225 23.25 16.4001 22.5902 18.2502 21.354C20.1002 20.1179 21.5422 18.3609 22.3936 16.3052C23.2451 14.2495 23.4679 11.9875 23.0338 9.80524C22.5998 7.62295 21.5283 5.61839 19.955 4.04505C18.3816 2.47171 16.3771 1.40025 14.1948 0.966171C12.0125 0.532087 9.75048 0.754875 7.69481 1.60636C5.63914 2.45785 3.88213 3.89979 2.64597 5.74984C1.4098 7.59989 0.75 9.77497 0.75 12C0.753375 14.9827 1.93972 17.8422 4.04878 19.9512C6.15783 22.0603 9.01735 23.2466 12 23.25ZM12 2.25001C13.9284 2.25001 15.8134 2.82183 17.4168 3.89318C19.0202 4.96452 20.2699 6.48726 21.0078 8.26884C21.7458 10.0504 21.9389 12.0108 21.5627 13.9021C21.1865 15.7935 20.2579 17.5307 18.8943 18.8943C17.5307 20.2579 15.7934 21.1865 13.9021 21.5627C12.0108 21.9389 10.0504 21.7458 8.26884 21.0078C6.48726 20.2699 4.96452 19.0202 3.89317 17.4168C2.82183 15.8134 2.25 13.9284 2.25 12C2.25298 9.41506 3.28116 6.93684 5.109 5.109C6.93683 3.28117 9.41505 2.25298 12 2.25001Z" fill="#6CA965"/>
<path d="M12 18.75C12.4142 18.75 12.75 18.4142 12.75 18C12.75 17.5858 12.4142 17.25 12 17.25C11.5858 17.25 11.25 17.5858 11.25 18C11.25 18.4142 11.5858 18.75 12 18.75Z" fill="#6CA965"/>
<path d="M9 9.75C9.19891 9.75 9.38968 9.67098 9.53033 9.53033C9.67098 9.38968 9.75 9.19891 9.75 9C9.75 8.40326 9.98705 7.83097 10.409 7.40901C10.831 6.98705 11.4033 6.75 12 6.75C12.5967 6.75 13.169 6.98705 13.591 7.40901C14.0129 7.83097 14.25 8.40326 14.25 9C14.25 10.1895 13.6852 10.7543 12.9697 11.4698C12.4426 11.8968 12.0155 12.4343 11.7184 13.0442C11.4213 13.6541 11.2614 14.3217 11.25 15C11.25 15.1989 11.329 15.3897 11.4697 15.5303C11.6103 15.671 11.8011 15.75 12 15.75C12.1989 15.75 12.3897 15.671 12.5303 15.5303C12.671 15.3897 12.75 15.1989 12.75 15C12.75 13.8105 13.3148 13.2458 14.0303 12.5303C14.5574 12.1032 14.9845 11.5657 15.2816 10.9558C15.5787 10.3459 15.7386 9.67833 15.75 9C15.75 8.00544 15.3549 7.05161 14.6517 6.34835C13.9484 5.64509 12.9946 5.25 12 5.25C11.0054 5.25 10.0516 5.64509 9.34835 6.34835C8.64509 7.05161 8.25 8.00544 8.25 9C8.25 9.19891 8.32902 9.38968 8.46967 9.53033C8.61032 9.67098 8.80109 9.75 9 9.75Z" fill="#6CA965"/>
</g>
<defs>
<clipPath id="clip0_506_1652">
<rect width="24" height="24" fill="white"/>
</clipPath>
</defs>
</svg>
