<svg width="449" height="491" viewBox="0 0 449 491" fill="none" xmlns="http://www.w3.org/2000/svg">
<path d="M5.22998 487.74C58.9542 446.553 29.8257 371.293 16.1315 233.345C-24.0719 40.0852 94.109 -75.2639 192.778 58.2729C277.72 157.204 339.375 23.0368 409.497 147.849C456.998 232.398 417.48 327.796 416.312 397.031C415.393 451.608 446.985 487.74 446.985 487.74H5.22998Z" fill="#FFE6C7"/>
<path d="M446.194 490.328H0.790671C0.580972 490.328 0.379863 490.191 0.231583 489.949C0.0833033 489.706 0 489.377 0 489.034C0 488.691 0.0833033 488.361 0.231583 488.119C0.379863 487.876 0.580972 487.74 0.790671 487.74H446.194C446.404 487.74 446.605 487.876 446.753 488.119C446.901 488.361 446.985 488.691 446.985 489.034C446.985 489.377 446.901 489.706 446.753 489.949C446.605 490.191 446.404 490.328 446.194 490.328Z" fill="black"/>
<path d="M231.297 68.9465H9.60107V160.69H231.297V68.9465Z" fill="#878787"/>
<path d="M64.943 74.3121H14.6455V155.368H64.943V74.3121Z" fill="#5A5A5B"/>
<path d="M60.0872 107.729H56.7876V121.864H60.0872V107.729Z" fill="#878787"/>
<path d="M123.301 74.3121H73.0039V155.368H123.301V74.3121Z" fill="#5A5A5B"/>
<path d="M118.446 107.729H115.146V121.864H118.446V107.729Z" fill="#878787"/>
<path d="M223.802 74.7922H133.719V101.186H223.802V74.7922Z" fill="#CDCDCD"/>
<path d="M223.802 105.068H133.719V155.063H223.802V105.068Z" fill="#CDCDCD"/>
<path d="M167.753 121.951V114.012H191.511V121.951H194.764V111.002H164.5V121.951H167.753Z" fill="#5A5A5B"/>
<path d="M203.343 119.726H155.874V155.194H203.343V119.726Z" fill="#959696"/>
<path d="M190.851 125.834H168.413C166.903 125.834 165.679 126.967 165.679 128.364V146.556C165.679 147.954 166.903 149.086 168.413 149.086H190.851C192.361 149.086 193.585 147.954 193.585 146.556V128.364C193.585 126.967 192.361 125.834 190.851 125.834Z" fill="#878787"/>
<path d="M188.305 134.951H182.319V129.411H176.945V134.951H170.958V139.925H176.945V145.465H182.319V139.925H188.305V134.951Z" fill="white"/>
<path d="M308.058 415.768H118.145V424.223H308.058V415.768Z" fill="#8A8888"/>
<path d="M125.3 316.909H116.194V473.003H125.3V316.909Z" fill="#8A8888"/>
<path d="M310.661 320.812H301.556V476.905H310.661V320.812Z" fill="#8A8888"/>
<path d="M116.194 320.812V323.988C116.194 352.61 135.38 363.087 150.717 363.087H278.096C293.426 363.087 312.612 352.61 312.612 323.988V320.812H116.194Z" fill="#CDCCD0"/>
<path d="M307.393 327.531C307.393 324.923 308.457 314.308 292.868 314.308H136.516C120.993 314.308 122.064 324.917 122.064 327.531C122.068 327.641 122.079 327.749 122.096 327.857H122.064C124.829 349.688 141.115 357.884 154.359 357.884H275.092C288.342 357.884 304.654 349.688 307.393 327.857H307.36C307.341 327.746 307.393 327.642 307.393 327.531Z" fill="#797C7C"/>
<path opacity="0.33" d="M267.704 329.463C251.146 331.227 234.51 332.155 217.858 332.242C216.13 332.242 214.377 332.242 212.603 332.242C194.317 332.335 176.04 331.381 157.863 329.384C143.87 327.945 129.962 325.779 116.194 322.894V324.113C116.194 352.644 135.38 363.087 150.717 363.087H278.095C293.426 363.087 312.612 352.644 312.612 324.113V322.763C303.777 324.592 288.158 327.378 267.704 329.463Z" fill="#D9D9D9"/>
<path d="M131.153 473.646C131.155 475.705 130.545 477.718 129.402 479.43C128.259 481.143 126.634 482.477 124.732 483.266C122.831 484.054 120.738 484.261 118.718 483.86C116.699 483.458 114.844 482.467 113.389 481.011C111.933 479.556 110.942 477.701 110.54 475.682C110.139 473.662 110.346 471.569 111.134 469.668C111.923 467.766 113.257 466.141 114.97 464.998C116.682 463.855 118.695 463.245 120.754 463.247C122.12 463.246 123.472 463.514 124.734 464.037C125.997 464.559 127.143 465.325 128.109 466.291C129.075 467.257 129.841 468.403 130.363 469.666C130.886 470.928 131.154 472.28 131.153 473.646Z" fill="#322425"/>
<path d="M316.514 477.549C316.515 479.607 315.906 481.62 314.763 483.333C313.62 485.045 311.995 486.38 310.093 487.168C308.191 487.957 306.099 488.163 304.079 487.762C302.06 487.361 300.205 486.369 298.75 484.914C297.294 483.458 296.303 481.603 295.901 479.584C295.5 477.565 295.707 475.472 296.495 473.57C297.284 471.668 298.618 470.043 300.331 468.9C302.043 467.757 304.056 467.148 306.114 467.149C307.48 467.148 308.833 467.417 310.095 467.939C311.357 468.461 312.504 469.227 313.47 470.193C314.436 471.159 315.202 472.306 315.724 473.568C316.247 474.83 316.515 476.183 316.514 477.549Z" fill="#322425"/>
<path d="M120.75 461.296C118.088 461.301 115.501 462.211 113.386 463.884C111.271 465.557 109.745 467.902 109.042 470.559L108.39 473.003H133.104L132.452 470.559C131.747 467.904 130.222 465.562 128.109 463.889C125.996 462.216 123.411 461.305 120.75 461.296Z" fill="#CCCDD0"/>
<path d="M306.111 465.198C303.449 465.204 300.862 466.113 298.747 467.786C296.632 469.459 295.106 471.804 294.403 474.461L293.75 476.905H318.465L317.813 474.461C317.108 471.807 315.583 469.464 313.47 467.791C311.357 466.118 308.772 465.208 306.111 465.198Z" fill="#CCCDD0"/>
<path d="M122.984 128.653L119.48 219.545C119.48 219.545 180.906 236.979 208.935 230.865C225.849 227.187 243.062 225.47 260.297 225.742L243.897 120.39L191.044 97.7498C191.044 97.7498 183.589 102.955 179.937 99.0719L122.984 128.653Z" fill="#FCFFFE" fill-opacity="0.5"/>
<path d="M149.439 102.28H151.088V91.0632C151.088 90.308 151.25 89.5603 151.565 88.8634C151.879 88.1666 152.34 87.5343 152.92 87.0034C153.5 86.4725 154.189 86.0536 154.945 85.7706C155.702 85.4877 156.512 85.3465 157.328 85.3553H183.289V83.7624H157.328C155.236 83.7624 153.229 84.5316 151.75 85.9008C150.27 87.2699 149.439 89.1269 149.439 91.0632V102.28Z" fill="#C5C7C6"/>
<path d="M186.445 74.1392V89.8689C186.445 91.329 185.656 92.4573 184.652 92.4573H181.998C180.994 92.4573 180.205 91.329 180.205 89.8689V74.471L186.445 74.1392Z" fill="#C5C7C6"/>
<path d="M125.056 120.996C128.642 127.633 143.558 129.293 158.834 122.39C174.109 115.488 184.078 99.6252 177.122 95.4439C170.165 91.2626 162.205 90.3334 144.563 97.2359C128.928 103.342 121.398 114.094 125.056 120.996Z" fill="#C5C7C6"/>
<path d="M125.487 122.125C129.145 128.762 144.492 129.757 159.767 122.855C175.043 115.952 184.151 105.532 180.493 98.6298C176.836 91.7273 161.919 92.6564 146.643 99.559C131.368 106.461 121.829 115.222 125.487 122.125Z" fill="#CDCECE"/>
<path d="M157.83 101.616C158.261 102.413 160.125 102.413 161.99 101.616C163.855 100.82 165.002 99.3596 164.5 98.5632C163.998 97.7668 162.205 97.7004 160.412 98.5632C158.619 99.426 157.4 100.753 157.83 101.616Z" fill="white"/>
<path d="M135.097 111.904C135.527 112.767 137.392 112.767 139.256 111.904C141.121 111.041 142.197 109.714 141.766 108.917C141.336 108.121 139.471 108.055 137.607 108.917C135.742 109.78 134.595 111.107 135.097 111.904Z" fill="white"/>
<path d="M163.782 113.297C164.213 114.16 166.077 114.16 167.87 113.297C169.663 112.435 170.882 111.107 170.452 110.311C170.021 109.514 168.157 109.448 166.292 110.311C164.428 111.174 163.782 112.435 163.782 113.297Z" fill="white"/>
<path d="M144.778 103.74C145.208 104.603 147.073 104.603 148.937 103.74C150.802 102.877 151.949 101.55 151.519 100.687C151.089 99.8244 149.224 99.8908 147.36 100.687C145.495 101.484 144.348 102.877 144.778 103.74Z" fill="white"/>
<path d="M170.453 104.47C170.883 105.266 172.748 105.266 174.612 104.47C176.477 103.674 177.553 102.28 177.122 101.417C176.692 100.554 174.827 100.554 172.963 101.417C171.098 102.28 170.023 103.607 170.453 104.47Z" fill="white"/>
<path d="M208.391 92.5238H207.316V85.0903C207.316 84.5966 207.21 84.1077 207.003 83.6524C206.797 83.1971 206.495 82.7843 206.114 82.4383C205.734 82.0923 205.282 81.82 204.787 81.6372C204.291 81.4543 203.761 81.3647 203.228 81.3735H186.159V80.3116H203.228C204.597 80.3116 205.911 80.815 206.879 81.7112C207.847 82.6074 208.391 83.8229 208.391 85.0903V92.5238Z" fill="#C5C7C6"/>
<path d="M242.671 114.692C239.372 120.997 225.818 122.258 211.905 115.953C197.992 109.647 188.884 95.1788 195.195 91.3957C201.506 87.6126 208.75 86.7498 224.886 92.9886C238.942 98.5637 245.827 108.386 242.671 114.692Z" fill="#C5C7C6"/>
<path d="M242.025 115.753C238.726 121.992 224.741 122.39 210.828 116.35C196.915 110.311 188.596 100.554 191.967 94.2491C195.338 87.944 208.82 88.8068 222.733 95.112C236.646 101.417 245.396 109.448 242.025 115.753Z" fill="#CDCECE"/>
<path d="M212.55 96.9707C212.191 97.7672 210.47 97.7672 208.821 96.9707C207.171 96.1743 206.096 94.9796 206.454 94.2495C206.813 93.5194 208.606 93.453 210.255 94.2495C211.905 95.0459 212.98 96.2406 212.55 96.9707Z" fill="white"/>
<path d="M233.348 106.395C233.348 107.192 231.268 107.192 229.618 106.395C227.969 105.599 226.893 104.404 227.252 103.608C227.61 102.811 229.403 102.878 231.053 103.608C232.702 104.338 233.778 105.798 233.348 106.395Z" fill="white"/>
<path d="M206.813 107.656C206.383 108.452 204.661 108.452 203.012 107.656C201.362 106.86 200.287 105.665 200.645 104.935C201.004 104.205 202.797 104.138 204.446 104.935C206.096 105.731 207.315 106.926 206.813 107.656Z" fill="white"/>
<path d="M224.456 99.1606C224.026 99.8906 222.376 99.8906 220.655 99.1606C218.934 98.4305 217.93 97.1695 218.36 96.3731C218.79 95.5766 220.44 95.643 222.161 96.3731C223.882 97.1031 224.886 98.165 224.456 99.1606Z" fill="white"/>
<path d="M215.848 115.156C215.848 115.952 213.769 115.952 212.119 115.156C210.47 114.359 209.394 113.165 209.753 112.368C210.111 111.572 211.904 111.638 213.553 112.368C215.203 113.098 216.279 114.426 215.848 115.156Z" fill="white"/>
<path d="M201.075 99.559C201.075 100.355 198.996 100.355 197.346 99.559C195.697 98.7626 194.621 97.5679 194.98 96.8378C195.338 96.1078 197.059 96.0414 198.781 96.8378C200.502 97.6343 201.506 99.1608 201.075 99.559Z" fill="white"/>
<path d="M322.628 309.204C322.628 312.133 304.502 320.469 209.231 320.469C113.96 320.469 95.833 312.583 95.833 309.204V235.412C95.9433 233.998 98.1236 232.651 101.906 231.661C105.689 230.671 110.773 230.117 116.068 230.117H302.394C305.031 230.102 307.653 230.228 310.106 230.488C312.558 230.747 314.793 231.135 316.677 231.628C318.562 232.121 320.059 232.71 321.081 233.36C322.103 234.01 322.629 234.707 322.628 235.412V309.204Z" fill="#E1DEDF"/>
<path d="M314 230.116C314 232.252 266.518 233.961 207.69 233.961C148.862 233.961 101.379 232.252 101.379 230.116C101.379 227.98 149.282 226.271 207.69 226.271C266.098 226.271 314 228.193 314 230.116Z" fill="#E9E8EA"/>
<path d="M105.693 255.107V304.954C105.693 307.613 122.074 314.702 209.02 314.702C295.966 314.702 312.768 307.613 312.768 304.954V255.107H105.693Z" fill="white"/>
<path d="M293.663 230.099V216.965C293.663 216.034 292.284 215.142 289.83 214.483C287.375 213.825 284.047 213.455 280.576 213.455H137.886C134.415 213.455 131.086 213.825 128.632 214.483C126.178 215.142 124.799 216.034 124.799 216.965V230.099C152.518 231.707 180.912 232.316 209.231 231.911C237.551 232.328 265.951 231.719 293.663 230.099Z" fill="#FFD088"/>
<path d="M314.001 255.428C314.001 258.441 267.239 260.875 209.945 260.875C152.651 260.875 106.311 258.441 106.311 255.428C106.311 252.415 152.651 249.981 209.945 249.981C267.239 249.981 314.001 252.415 314.001 255.428Z" fill="#F5F5F5"/>
<path d="M251.828 242.781L308.146 250.301C308.146 250.301 324.031 260.193 305.976 264.244C287.921 268.296 222.565 274.972 222.565 274.972C222.565 274.972 155.613 274.972 106.926 256.069C141.131 238.446 180.699 238.446 180.699 238.446C180.699 238.446 235.712 241.21 251.828 242.781Z" fill="#FAB64D"/>
<path d="M282.521 251.444C284.411 252.281 292.975 261.273 278.033 266.3C265.394 270.489 247.971 267.305 232.202 267.808C242.478 269.037 247.971 278.364 227.359 275.795C220.619 274.508 214.253 271.86 208.696 268.031C199.542 262.949 198.774 256.861 194.167 256.47C191.155 260.324 177.748 262.446 162.334 260.324C157.027 260.111 151.724 260.812 146.683 262.39C139.005 263.675 131.977 262.39 136.938 255.688C144.97 244.518 181.41 251.946 193.754 247.032C206.097 242.117 267.225 244.63 282.521 251.444Z" fill="#F39541"/>
<path d="M196.694 246.697C191.289 244.265 186.112 241.42 181.217 238.191C181.73 232.184 184.366 226.5 188.717 222.017C193.068 217.534 198.893 214.501 205.292 213.387C206.82 215.229 208.527 216.937 210.392 218.491C220.767 226.571 233.093 232.218 246.326 234.954C246.326 234.954 245.792 255.807 236.898 256.905C230.223 257.496 223.497 257.367 216.855 256.52C218.338 253.008 219.346 250.155 219.346 250.155C211.608 250.644 203.852 249.461 196.694 246.697Z" fill="#FACDB7"/>
<path d="M181.216 245.106C181.007 242.805 181.007 240.492 181.216 238.191C186.016 241.406 191.093 244.251 196.397 246.697C203.622 249.596 211.485 250.875 219.345 250.429C219.345 250.429 218.337 253.282 216.854 256.795C208.165 256.191 199.687 254.029 191.89 250.429C188.434 248.485 184.871 246.708 181.216 245.106Z" fill="#F7B89E"/>
<path d="M287.951 248.727C287.703 252.809 286.005 256.701 283.12 259.797C280.236 262.893 276.326 265.021 272 265.849C268.29 266.338 264.537 266.503 260.793 266.343C254.631 267.067 248.384 266.863 242.292 265.739C238.912 264.916 236.362 260.965 233.457 257.124C231.656 254.776 230.552 252.032 230.255 249.166C232.336 252.31 234.592 255.35 237.015 258.276C238.423 260.394 240.471 262.084 242.905 263.137C245.339 264.191 248.053 264.561 250.713 264.203C257.577 263.864 264.4 263.002 271.111 261.624C278.76 259.538 283.504 254.654 285.164 242.965C285.762 237.375 284.185 231.771 280.717 227.161L282.022 228.148C287.951 232.923 288.604 241.099 287.951 248.727Z" fill="#F7B89E"/>
<path d="M237.133 239.508C240.085 233.92 244.882 229.345 250.83 226.448L253.499 225.734C263.105 223.319 275.439 223.374 280.835 227.161C284.303 231.771 285.88 237.375 285.282 242.966C283.622 254.655 278.878 259.429 271.229 261.624C264.518 263.002 257.695 263.865 250.83 264.203C248.171 264.561 245.457 264.191 243.023 263.138C240.588 262.085 238.541 260.395 237.133 258.277C236.131 256.813 235.042 255.403 233.871 254.051C234.16 249.079 235.26 244.176 237.133 239.508Z" fill="#FACDB7"/>
<path d="M237.134 235.118C243.064 229.63 244.369 228.094 250.832 226.447C244.884 229.345 240.086 233.919 237.134 239.508C235.261 244.176 234.162 249.079 233.873 254.051C232.732 252.983 231.772 251.762 231.027 250.429C230.887 247.628 231.355 244.831 232.404 242.201C233.453 239.571 235.062 237.162 237.134 235.118Z" fill="#F7B89E"/>
<path d="M255.279 258.551C255.332 258.472 255.407 258.406 255.495 258.361C255.583 258.315 255.682 258.291 255.783 258.291C255.884 258.291 255.983 258.315 256.072 258.361C256.16 258.406 256.234 258.472 256.287 258.551C256.821 259.209 256.702 260.691 256.821 261.459C256.821 263.27 257.71 263.545 257.71 264.258C257.71 264.972 256.94 264.697 256.702 264.258C255.862 263.535 255.318 262.566 255.161 261.514C254.801 260.547 254.843 259.491 255.279 258.551Z" fill="#88332F"/>
<path d="M254.863 243.844C255.278 243.844 256.168 243.844 256.049 244.228C255.931 244.612 255.575 245.819 255.456 246.642C255.28 247.66 255.28 248.698 255.456 249.716C255.456 250.648 254.211 250.648 253.855 249.716C253.437 248.743 253.31 247.685 253.488 246.651C253.665 245.618 254.14 244.648 254.863 243.844Z" fill="#88332F"/>
<path d="M245.85 255.588C246.443 256.191 246.562 257.014 248.341 257.947C249.053 258.277 248.815 259.21 247.096 258.825C246.488 258.672 245.932 258.381 245.476 257.978C245.021 257.576 244.681 257.075 244.487 256.521C244.427 255.588 245.198 254.984 245.85 255.588Z" fill="#F0A184"/>
<path d="M260.556 232.319C261.451 231.857 262.144 231.119 262.513 230.234C262.868 229.136 262.513 227.49 259.844 227.161C257.493 226.852 255.096 227.059 252.847 227.764C250.89 228.587 250.831 229.795 250.831 229.795C253.091 228.574 255.691 228.001 258.302 228.148C262.275 228.642 261.505 230.234 260.556 232.319Z" fill="#F0A184"/>
<path d="M237.251 253.063C237.376 252.823 237.584 252.629 237.841 252.51C238.099 252.391 238.391 252.353 238.674 252.404C240.393 252.404 241.461 255.752 241.046 256.52C240.918 256.754 240.705 256.937 240.444 257.038C240.183 257.138 239.891 257.149 239.623 257.069C238.674 257.069 238.259 255.917 237.844 255.203C237.429 254.49 236.954 253.776 237.251 253.063Z" fill="#F0A184"/>
<path d="M263.522 244.612C264.631 245.614 265.517 246.807 266.131 248.124C266.605 249.057 265.182 249.88 264.648 248.947C264.115 248.014 262.514 246.368 261.802 245.161C261.09 243.953 262.573 243.734 263.522 244.612Z" fill="#88332F"/>
<path d="M264.233 262.502C264.878 261.311 265.632 260.173 266.486 259.1C266.842 258.77 267.672 259.1 267.613 259.539C267.358 260.915 266.748 262.214 265.834 263.325C265.3 264.313 263.64 263.38 264.233 262.502Z" fill="#88332F"/>
<path d="M200.072 257.234C200.202 254.878 201.149 252.623 202.772 250.804C204.396 248.986 206.609 247.699 209.085 247.136C214.494 245.265 220.165 244.12 225.925 243.734C228.227 243.553 230.518 244.181 232.342 245.493C234.166 246.805 235.389 248.704 235.769 250.813C233.564 252.182 231.171 253.271 228.653 254.051C222.824 255.386 216.864 256.177 210.864 256.411L215.015 259.1C218.538 262.649 222.521 265.783 226.874 268.429C229.246 269.746 233.16 266.289 237.133 270.02C240.097 272.819 239.92 275.508 237.133 276.496C233.12 277.301 228.93 276.797 225.273 275.069C216.793 271.173 198.411 266.179 200.072 257.234Z" fill="#FACDB7"/>
<path d="M228.654 254.051C231.172 253.271 233.565 252.182 235.77 250.813C236.256 252.4 236.082 254.099 235.28 255.572C234.478 257.045 233.108 258.187 231.441 258.77C225.975 259.817 220.347 259.929 214.838 259.1L210.687 256.411C216.747 256.188 222.767 255.397 228.654 254.051Z" fill="#F7B89E"/>
<path d="M203.155 250.429C207.766 247.346 213.119 245.349 218.751 244.612C222.012 244.063 225.926 243.734 225.926 243.734C223.302 242.521 220.409 241.89 217.476 241.89C214.543 241.89 211.65 242.521 209.026 243.734C199.42 247.795 197.166 249.222 197.166 249.222L203.155 250.429Z" fill="#F7B89E"/>
<path d="M163.901 216.569C166.092 212.441 169.536 208.994 173.812 206.65C178.087 204.305 183.008 203.165 187.973 203.369C192.938 203.573 197.73 205.112 201.765 207.797C205.799 210.483 208.899 214.199 210.687 218.49C207.078 218.143 203.451 218.958 200.416 220.797C197.381 222.636 195.123 225.388 194.024 228.588C191.841 233.562 190.87 238.921 191.178 244.282C178.742 238.428 169.043 228.573 163.901 216.569Z" fill="#D1ECFC"/>
<path d="M162.004 224.088C162.107 221.492 162.751 218.939 163.902 216.569C169.104 228.471 178.796 238.22 191.179 244.008C191.277 246.084 191.615 248.145 192.187 250.154C192.187 250.154 161.115 245.654 162.004 224.088Z" fill="#D1ECFC"/>
<path opacity="0.5" d="M162.004 224.088C162.107 221.492 162.751 218.939 163.902 216.569C169.104 228.471 178.796 238.22 191.179 244.008C191.277 246.084 191.615 248.145 192.187 250.154C192.187 250.154 161.115 245.654 162.004 224.088Z" fill="#8DC6ED"/>
<path d="M134.43 255.587C136.759 252.43 140.3 250.213 144.332 249.386C149.313 248.289 152.397 251.307 154.65 250.648C158.119 249.527 161.767 248.951 165.442 248.947C167.518 248.947 169.593 249.276 171.372 249.331C173.447 249.331 174.871 249.331 174.871 249.331C171.357 243.064 168.383 236.55 165.976 229.85C164.659 226.557 164.513 222.962 165.561 219.587C167.902 217.991 170.824 217.304 173.704 217.673C176.584 218.042 179.194 219.438 180.978 221.563C186.309 229.637 188.911 239.001 188.45 248.453C188.45 260.965 182.816 259.868 177.005 261.514C174.278 262.282 157.437 259.429 152.1 259.209C146.763 258.99 143.858 262.227 140.241 263.215C134.963 264.642 129.982 261.349 134.43 255.587Z" fill="#FACDB7"/>
<path d="M165.444 248.728C167.429 248.687 169.414 248.816 171.374 249.113C169.357 249.058 167.519 248.948 165.444 248.728Z" fill="#F7B89E"/>
<path d="M166.094 229.685C168.5 236.386 171.475 242.9 174.988 249.167C174.988 249.167 173.565 249.167 171.49 249.167C170.897 248.618 159.63 238.191 162.002 226.502C162.391 223.859 163.679 221.399 165.679 219.478C164.644 222.835 164.789 226.41 166.094 229.685Z" fill="#F7B89E"/>
<circle cx="146.494" cy="207.084" r="13.0837" fill="#F0EDEE"/>
<circle cx="261.443" cy="207.084" r="13.0837" fill="#F0EDEE"/>
<path d="M310.186 176.685L308.669 173.276C304.99 171.231 300.822 170.059 296.535 169.867C296.088 169.875 295.648 169.766 295.265 169.553C294.882 169.34 294.571 169.032 294.368 168.664L293.068 166.859L287.217 160.642C287.048 160.256 287.048 159.825 287.217 159.439C288.057 155.666 290.471 152.351 293.934 150.214C294.056 150.086 294.207 149.984 294.375 149.913C294.543 149.843 294.725 149.807 294.91 149.807C295.094 149.807 295.276 149.843 295.444 149.913C295.612 149.984 295.763 150.086 295.885 150.214C295.885 151.217 295.885 153.022 291.984 156.03V158.236L297.185 163.049L304.769 159.239V157.033C304.769 157.033 298.918 152.019 299.351 148.41C299.351 148.41 299.352 148.41 300.652 148.41L304.769 152.019L306.069 153.423L309.319 157.634C313.33 160.894 316.512 164.934 318.637 169.466C318.637 169.466 317.77 174.078 310.186 176.685Z" fill="#AFABA9"/>
<path d="M385.593 170.267L385.802 170.462H385.593V170.267Z" fill="#54B365"/>
<path d="M393.827 227.422L391.877 226.218L388.41 224.213C382.318 221.009 375.477 219.219 368.474 218.998C366.246 218.705 363.984 218.705 361.756 218.998H358.723C363.909 218.498 369.138 218.498 374.325 218.998C380.548 219.387 386.678 220.603 392.527 222.608L395.344 223.812C396.271 224.09 397.147 224.496 397.944 225.015L393.827 227.422Z" fill="#54B365"/>
<path d="M395.562 229.226C393.405 227.942 391.073 226.93 388.628 226.217H384.727L380.827 225.214L372.809 223.811C370.141 223.611 367.46 223.611 364.792 223.811C363.421 223.714 362.045 223.714 360.675 223.811H358.508H360.458H364.358C369.838 223.934 375.287 224.606 380.61 225.816L384.511 226.819L388.844 228.022L392.528 229.627C393.521 229.393 394.538 229.258 395.562 229.226Z" fill="#54B365"/>
<path d="M379.528 198.945L377.794 197.942L374.977 196.539C369.879 194.419 364.307 193.457 358.725 193.732C357.08 193.429 355.387 193.429 353.742 193.732H351.358C355.464 193.331 359.603 193.331 363.709 193.732C368.614 193.727 373.498 194.334 378.228 195.536H380.611H382.778L379.528 198.945Z" fill="#54B365"/>
<path d="M380.826 199.747C379.086 198.786 377.18 198.108 375.192 197.741H371.942H368.691H362.407H356.123H352.872H351.139H352.656H355.69H362.19C364.352 197.546 366.53 197.546 368.691 197.741H371.725H375.192L378.226 198.744C379.126 199 379.997 199.336 380.826 199.747Z" fill="#54B365"/>
<path d="M374.324 187.314V185.308L375.625 181.699C377.034 175.551 377.034 169.197 375.625 163.049C375.055 161.166 374.256 159.349 373.241 157.634C372.74 156.787 372.16 155.982 371.507 155.228C373.119 159.595 374.28 164.094 374.975 168.664C375.837 174.183 375.837 179.789 374.975 185.308C375.079 186.242 375.079 187.182 374.975 188.116C375.097 188.981 375.097 189.858 374.975 190.723C375.06 189.555 374.837 188.385 374.324 187.314Z" fill="#54B365"/>
<path d="M369.994 153.624L370.202 153.818L369.994 153.624Z" fill="#54B365"/>
<path d="M351.793 140.587L352.001 140.782L351.793 140.587Z" fill="#54B365"/>
<path d="M377.36 194.532H375.844L372.81 193.128C367.798 190.964 362.302 189.933 356.775 190.12C355.055 189.831 353.293 189.831 351.574 190.12L349.407 191.123C353.513 190.723 357.653 190.723 361.759 191.123C366.67 191.019 371.569 191.628 376.277 192.928H378.444H380.828L377.36 194.532Z" fill="#54B365"/>
<path d="M378.877 195.335C377.137 194.375 375.231 193.697 373.243 193.331H369.993H366.959H360.458H354.174H351.141H349.407H350.707H353.958H360.242H366.742H369.993H373.243H376.494L378.877 195.335Z" fill="#54B365"/>
<path d="M428.924 208.371L428.716 208.564H428.924V208.371Z" fill="#54B365"/>
<path d="M430.885 245.27C429.701 243.13 428.897 240.828 428.501 238.451C428.395 237.116 428.395 235.776 428.501 234.441V230.63C428.501 228.224 428.501 225.617 428.501 223.21C428.278 220.808 428.278 218.393 428.501 215.991C428.378 214.858 428.378 213.715 428.501 212.582C428.384 211.918 428.384 211.241 428.501 210.577V212.382C428.38 213.515 428.38 214.657 428.501 215.791C428.278 218.26 428.278 220.741 428.501 223.21V230.831C428.501 232.034 428.501 233.237 428.501 234.641C428.42 235.977 428.42 237.316 428.501 238.652C428.994 241.344 430.023 243.928 431.535 246.272L430.885 245.27Z" fill="#54B365"/>
<path d="M435.219 236.446C435.118 235.58 435.118 234.706 435.219 233.84V231.233C434.574 226.036 434.574 220.787 435.219 215.59C435.519 211.339 436.171 207.115 437.168 202.956C436.657 203.579 436.221 204.251 435.868 204.962C435.064 206.543 434.551 208.238 434.352 209.975C433.431 215.889 433.949 221.918 435.868 227.623L437.168 231.032C437.047 231.696 437.047 232.374 437.168 233.037L435.219 236.446Z" fill="#54B365"/>
<path d="M435.005 236.446C434.123 234.388 433.54 232.23 433.27 230.029C433.27 228.826 433.27 227.623 433.27 226.42C433.375 225.285 433.375 224.145 433.27 223.01C433.27 220.805 433.27 218.398 433.27 216.192C432.938 214.064 432.938 211.903 433.27 209.775C433.147 208.708 433.147 207.633 433.27 206.567C433.504 206.024 433.876 205.543 434.354 205.163V206.567C434.354 206.567 434.354 208.572 434.354 209.574C434.14 211.776 434.14 213.991 434.354 216.192C434.354 218.599 434.354 220.804 434.354 223.211C434.354 225.617 434.354 225.417 434.354 226.62C434.354 227.824 434.354 229.026 434.354 230.43C434.231 231.564 434.231 232.706 434.354 233.84C434.512 234.72 434.729 235.591 435.005 236.446Z" fill="#54B365"/>
<path d="M448.862 188.316L448.655 188.511L448.862 188.316Z" fill="#54B365"/>
<path d="M374.11 275.144L374.318 274.949V275.144H374.11Z" fill="#54B365"/>
<path d="M385.811 226.819L386.019 227.013H385.811V226.819Z" fill="#54B365"/>
<path d="M384.294 246.071C384.399 245.473 384.399 244.864 384.294 244.266C384.294 243.263 384.294 242.261 384.294 241.057C383.223 235.884 381.169 230.928 378.226 226.419C377.335 225.195 376.319 224.054 375.192 223.01C374.65 222.476 373.983 222.065 373.242 221.806H371.726C374.334 224.709 376.587 227.87 378.443 231.232C380.908 235.222 382.871 239.461 384.294 243.865C384.378 244.598 384.378 245.338 384.294 246.071C384.505 246.861 384.505 247.687 384.294 248.477C384.481 247.685 384.481 246.863 384.294 246.071Z" fill="#54B365"/>
<path d="M370.641 221.003L370.848 221.198H370.641V221.003Z" fill="#54B365"/>
<path d="M384.295 247.475V245.87C384.092 243.959 383.655 242.076 382.995 240.255C382.902 239.255 382.902 238.248 382.995 237.248L381.695 234.44L379.095 228.825C378.011 227.221 376.928 225.416 375.844 224.012L373.894 221.806H372.377L373.461 222.809L375.411 225.015C376.589 226.632 377.674 228.305 378.661 230.028L381.261 235.643C381.751 236.532 382.115 237.476 382.345 238.451L383.645 241.659C383.747 242.66 383.747 243.667 383.645 244.667C383.993 245.573 384.211 246.517 384.295 247.475Z" fill="#54B365"/>
<path d="M363.059 257.898L363.267 257.703L363.059 257.898Z" fill="#54B365"/>
<path d="M360.891 254.89L361.099 254.694L360.891 254.89Z" fill="#54B365"/>
<path d="M381.914 246.273H380.397H378.013C373.745 245.871 369.436 246.422 365.445 247.877L361.978 249.482L360.461 250.885C363.289 249.524 366.268 248.448 369.345 247.677C372.913 246.574 376.637 245.966 380.397 245.872H384.297L381.914 246.273Z" fill="#54B365"/>
<path d="M383.209 247.476H381.909C380.336 247.179 378.715 247.179 377.142 247.476H374.758H372.157H367.39L362.839 249.08C362.122 248.971 361.39 248.971 360.672 249.08C360.672 249.08 360.672 249.08 360.672 250.082H361.756L363.923 249.08L368.474 247.676H373.458H375.842H381.042L383.209 247.476Z" fill="#54B365"/>
<path d="M375.194 240.656V239.052C375.509 237.326 375.509 235.564 375.194 233.838C375.194 233.838 375.194 232.033 375.194 231.03C375.194 230.027 375.194 229.225 375.194 228.423C374.567 226.653 373.844 224.912 373.027 223.209C372.145 221.602 371.131 220.06 369.994 218.597L368.043 216.391H366.526L367.61 217.393L369.56 219.599C370.671 221.112 371.615 222.725 372.377 224.412C373.304 226.096 374.1 227.839 374.761 229.626C374.761 229.626 374.761 231.431 375.845 232.233C376.928 233.036 375.845 234.239 375.845 235.241C375.965 236.174 375.965 237.116 375.845 238.049C375.776 238.944 375.556 239.824 375.194 240.656Z" fill="#54B365"/>
<g style="mix-blend-mode:multiply" opacity="0.43">
<g style="mix-blend-mode:multiply" opacity="0.43">
<path d="M295.452 158.836H298.702H301.736H303.903C303.903 158.836 303.903 159.839 303.903 160.441L297.402 162.045L295.452 169.665C294.453 167.092 293.94 164.378 293.935 161.644L295.452 158.836Z" fill="#AFABA9"/>
</g>
</g>
<path d="M298.702 167.259V163.65C298.702 163.65 303.686 161.644 303.469 159.84C301.07 160.494 298.747 161.367 296.535 162.446C296.443 162.775 296.443 163.12 296.535 163.449C296.083 165.229 296.083 167.083 296.535 168.863L298.702 167.259Z" fill="#AFABA9"/>
<path d="M380.609 173.876L354.823 211.578C353.706 213.259 351.999 214.535 349.988 215.192C347.976 215.849 345.782 215.847 343.772 215.187C331.637 210.575 316.469 184.705 310.185 175.08C311.456 174.435 312.565 173.546 313.435 172.472C313.985 172.028 314.428 171.481 314.735 170.868L316.469 167.459L347.022 193.329L361.757 162.847C362.514 161.213 363.744 159.804 365.312 158.778C366.88 157.751 368.725 157.147 370.642 157.031C372.261 156.541 374.007 156.541 375.626 157.031C377.69 157.767 379.439 159.104 380.609 160.841C380.691 161.44 380.691 162.047 380.609 162.646C381.821 164.304 382.468 166.26 382.468 168.261C382.468 170.263 381.821 172.218 380.609 173.876Z" fill="#C5C5C5"/>
<path d="M428.716 490.13H404.012C403.086 490.087 402.207 489.741 401.532 489.153C400.857 488.565 400.43 487.774 400.328 486.921C398.64 480.18 399.481 473.108 402.712 466.867V465.865H412.464L421.565 484.715C421.565 484.715 428.283 484.314 428.716 490.13Z" fill="white"/>
<path d="M403.691 489.869H378.987C378.061 489.826 377.182 489.48 376.507 488.892C375.832 488.304 375.405 487.513 375.303 486.66C373.615 479.919 374.456 472.847 377.687 466.606V465.604H387.438L396.54 484.454C396.54 484.454 403.257 484.053 403.691 489.869Z" fill="white"/>
<path d="M427.219 362.523C422.378 396.058 423.992 431.613 417.94 466.561C415.295 468.368 412.167 469.334 408.965 469.334C405.762 469.334 402.634 468.368 399.988 466.561V359.695V274.849H392.324V367.978V468.986C386.323 470.687 379.968 470.687 373.968 468.986C369.53 431.209 370.74 392.422 367.513 357.271C362.067 296.667 361.663 246.769 378.002 232.627L420.159 227.779C436.901 255.859 435.288 305.757 427.219 362.523Z" fill="#504E4F"/>
<g style="mix-blend-mode:multiply" opacity="0.3">
<g style="mix-blend-mode:multiply" opacity="0.3">
<path d="M430.885 373.816L426.551 375.22C422.167 376.663 417.551 377.409 412.899 377.426C409.363 377.626 405.817 377.626 402.28 377.426V360.38V276.153H394.046V368.602V376.022C384.367 374.217 374.923 371.461 365.876 367.8C365.876 364.792 365.876 361.583 365.876 358.575C360.025 298.413 359.591 248.879 377.144 234.841L422.433 230.028C444.103 257.302 442.37 306.835 433.702 363.187C430.885 365.995 430.885 369.805 430.885 373.816Z" fill="#EC9CC4"/>
</g>
</g>
<path d="M422.867 352.358C408.857 354.262 394.621 354.262 380.611 352.358C373.891 351.542 367.232 350.337 360.675 348.748C355.691 291.995 358.725 247.275 375.411 233.839L420.7 229.025C440.852 254.294 443.452 298.012 436.952 349.35C432.358 350.724 427.646 351.73 422.867 352.358Z" fill="#D5D5D5"/>
<g style="mix-blend-mode:multiply" opacity="0.52">
<g style="mix-blend-mode:multiply" opacity="0.52">
<path d="M422.863 352.358C415.686 353.305 408.444 353.774 401.194 353.762C420.456 314.962 423.994 271.043 411.162 230.028H421.13C441.283 255.297 443.883 299.014 437.382 350.353C432.615 351.411 427.757 352.082 422.863 352.358Z" fill="#BCBCBC"/>
</g>
</g>
<path d="M398.409 152.686C388.123 152.333 377.888 154.186 368.505 158.101C364.601 159.844 361.509 162.833 359.797 166.517C358.085 170.202 357.869 174.334 359.187 178.155C359.728 180.129 359.728 182.197 359.187 184.171L357.886 189.586C357.447 191.457 357.453 193.395 357.902 195.265C358.351 197.135 359.233 198.892 360.487 200.415L365.471 206.431L374.139 235.109L409.027 231.499C420.47 212.681 428.867 192.411 433.947 171.337C429.932 165.944 424.648 161.464 418.492 158.234C412.337 155.004 405.47 153.107 398.409 152.686Z" fill="#D4D4D4"/>
<path d="M384.509 156.63C384.509 160.842 376.491 181.097 380.392 181.498C384.292 181.899 402.061 161.443 402.061 157.633V137.579H384.726V157.633L384.509 156.63Z" fill="#AFABA9"/>
<g style="mix-blend-mode:multiply" opacity="0.5">
<g style="mix-blend-mode:multiply" opacity="0.5">
<path d="M384.51 153.421V154.825C398.595 154.825 400.545 140.788 400.762 136.978V135.975H393.611L385.594 136.978L384.293 147.004L384.51 153.421Z" fill="#AFABA9"/>
</g>
</g>
<path d="M374.325 154.225C377.396 152.677 380.802 151.787 384.294 151.617C384.185 153.22 384.185 154.828 384.294 156.43C384.294 162.045 382.56 163.85 382.127 169.465C381.906 172.804 381.906 176.153 382.127 179.492C380.826 182.7 379.526 186.11 378.009 189.318C375.655 181.647 374.059 173.794 373.242 165.855L377.143 164.051C375.67 163.742 374.222 163.34 372.809 162.847C373.675 161.243 371.292 157.032 374.325 154.225Z" fill="#C5C5C5"/>
<path d="M370.859 144.397C372.743 146.942 375.516 148.81 378.712 149.686C381.908 150.563 385.333 150.395 388.411 149.21C392.745 147.486 396.653 144.961 399.896 141.79C400.78 140.922 401.577 139.982 402.28 138.982C404.242 136.604 405.644 133.871 406.397 130.961C407.347 130.937 408.281 130.733 409.142 130.362C410.003 129.99 410.772 129.459 411.402 128.801C412.032 128.143 412.509 127.372 412.804 126.536C413.098 125.7 413.204 124.817 413.115 123.942C413.115 123.942 413.115 117.124 406.831 119.931C407.763 118.121 408.289 116.156 408.377 114.152C408.465 112.149 408.114 110.15 407.344 108.276C406.575 106.402 405.403 104.691 403.899 103.248C402.396 101.804 400.592 100.658 398.596 99.8775C395.017 98.6407 391.161 98.2498 387.377 98.7401C383.593 99.2303 380.001 100.586 376.926 102.685C374.759 104.088 372.977 105.943 371.726 108.1C369.087 111.215 367.504 114.982 367.175 118.929V126.75V130.359C366.476 135.3 367.789 140.304 370.859 144.397Z" fill="#AFABA9"/>
<g opacity="0.2">
<g style="mix-blend-mode:multiply" opacity="0.2">
<g style="mix-blend-mode:multiply" opacity="0.2">
<path d="M398.597 133.368C398.597 134.378 398.163 135.348 397.391 136.062C396.619 136.777 395.572 137.178 394.48 137.178C393.388 137.178 392.341 136.777 391.569 136.062C390.797 135.348 390.363 134.378 390.363 133.368C390.363 132.357 390.797 131.388 391.569 130.674C392.341 129.959 393.388 129.558 394.48 129.558C395.555 129.606 396.572 130.024 397.333 130.728C398.094 131.432 398.544 132.373 398.597 133.368Z" fill="#EC9CC4"/>
</g>
</g>
</g>
<g opacity="0.2">
<g style="mix-blend-mode:multiply" opacity="0.2">
<g style="mix-blend-mode:multiply" opacity="0.2">
<path d="M375.406 134.571C375.407 135.062 375.299 135.549 375.09 136C374.88 136.452 374.573 136.859 374.188 137.197C373.802 137.535 373.347 137.797 372.848 137.966C372.35 138.135 371.819 138.208 371.289 138.181C370.769 138.21 370.247 138.137 369.76 137.966C369.272 137.795 368.83 137.53 368.461 137.188C368.092 136.847 367.806 136.437 367.621 135.986C367.436 135.535 367.357 135.053 367.389 134.571C367.388 133.594 367.791 132.654 368.517 131.945C369.243 131.236 370.235 130.812 371.289 130.76C371.838 130.731 372.387 130.81 372.901 130.991C373.415 131.172 373.881 131.452 374.27 131.812C374.659 132.172 374.961 132.604 375.157 133.079C375.352 133.555 375.437 134.063 375.406 134.571Z" fill="#EC9CC4"/>
</g>
</g>
</g>
<g style="mix-blend-mode:multiply" opacity="0.5">
<g style="mix-blend-mode:multiply" opacity="0.5">
<path d="M376.06 133.97C376.293 133.428 376.665 132.946 377.143 132.566V130.761C377.733 129.627 378.099 128.405 378.227 127.152C378.227 127.152 378.227 127.152 378.227 127.152C378.018 129.35 377.113 131.442 375.626 133.168C375.626 133.168 374.326 134.571 375.626 135.373C376.926 136.175 377.576 135.373 378.66 135.373C379.743 135.373 378.66 136.576 378.66 136.576C378.084 136.827 377.455 136.957 376.818 136.957C376.182 136.957 375.553 136.827 374.976 136.576C374.804 136.093 374.818 135.569 375.015 135.094C375.213 134.619 375.582 134.222 376.06 133.97Z" fill="#AFABA9"/>
</g>
</g>
<g style="mix-blend-mode:multiply">
<g style="mix-blend-mode:multiply" opacity="0.6">
<g style="mix-blend-mode:multiply" opacity="0.6">
<path d="M387.545 139.184L386.245 140.388C385.191 141.128 383.881 141.484 382.562 141.391C381.877 141.351 381.217 141.144 380.646 140.792C380.075 140.44 379.615 139.954 379.312 139.385C379.312 139.385 379.312 139.385 379.312 139.385H382.345C383.708 139.591 385.099 139.591 386.462 139.385L387.545 139.184Z" fill="#EC9CC4"/>
</g>
</g>
<g style="mix-blend-mode:multiply">
<path d="M389.281 137.78C389.4 138.033 389.462 138.306 389.462 138.582C389.462 138.858 389.4 139.131 389.281 139.384C386.654 140.55 383.713 140.968 380.83 140.588H379.313H381.047H383.647C384.575 140.397 385.536 140.397 386.464 140.588H388.631L389.281 137.78Z" fill="#EC9CC4"/>
</g>
</g>
<path d="M389.712 127.15C389.673 127.637 389.46 128.099 389.107 128.462C388.754 128.824 388.281 129.069 387.762 129.156C387.762 129.156 386.461 129.156 387.762 126.95C389.062 124.744 387.762 124.744 389.712 124.944C391.663 125.145 389.929 127.15 389.712 127.15Z" fill="#4D313B"/>
<path d="M376.062 127.151C376.023 127.637 375.81 128.099 375.457 128.462C375.104 128.824 374.631 129.069 374.112 129.156C373.849 128.84 373.706 128.452 373.706 128.053C373.706 127.654 373.849 127.266 374.112 126.95C374.112 125.747 374.112 124.744 376.062 124.945C378.013 125.145 376.279 127.151 376.062 127.151Z" fill="#4D313B"/>
<path d="M375.63 119.33C374.673 119.51 373.809 119.985 373.18 120.677C372.55 121.368 372.192 122.236 372.163 123.14C372.72 122.939 373.339 122.939 373.897 123.14H375.847C375.847 123.14 376.064 119.53 375.63 119.33Z" fill="#4D313B"/>
<path d="M387.544 118.929C388.511 118.867 389.469 119.141 390.23 119.697C390.991 120.253 391.501 121.052 391.66 121.937H387.544C387.212 121.823 386.926 121.618 386.724 121.349C386.522 121.08 386.414 120.761 386.414 120.433C386.414 120.106 386.522 119.786 386.724 119.517C386.926 119.249 387.212 119.043 387.544 118.929Z" fill="#4D313B"/>
<path d="M370.857 144.398C372.741 146.943 375.514 148.81 378.711 149.687C381.907 150.563 385.331 150.395 388.409 149.211C392.743 147.486 396.652 144.961 399.894 141.791C400.778 140.922 401.575 139.983 402.278 138.983C402.594 137.123 402.594 135.228 402.278 133.368C402.432 132.572 402.432 131.757 402.278 130.962C401.733 130.488 401.08 130.134 400.367 129.926C399.655 129.718 398.901 129.66 398.161 129.758C396.688 130.067 395.24 130.469 393.827 130.962C385.944 132.268 377.873 132.268 369.991 130.962H368.907C367.852 135.514 368.542 140.264 370.857 144.398Z" fill="white"/>
<path d="M370.427 137.78C377.101 138.783 383.905 138.783 390.579 137.78V138.783C383.407 139.905 376.082 139.905 368.91 138.783C368.91 138.783 369.777 137.78 370.427 137.78Z" fill="#DEDEDE"/>
<path d="M374.975 142.192C379.63 142.996 384.405 142.996 389.06 142.192C389.06 142.192 390.144 142.192 389.06 142.192C384.184 142.97 379.2 142.97 374.325 142.192C374.325 142.192 374.325 142.192 374.975 142.192Z" fill="#DEDEDE"/>
<path d="M367.173 134.17C375.065 135.375 383.117 135.375 391.009 134.17C392.305 133.528 393.691 133.055 395.127 132.766C395.866 132.682 396.616 132.746 397.327 132.954C398.037 133.161 398.691 133.508 399.244 133.969C399.446 134.761 399.446 135.585 399.244 136.376C399.471 137.705 399.471 139.058 399.244 140.387L400.327 138.983C400.644 137.123 400.644 135.228 400.327 133.368C400.481 132.572 400.481 131.757 400.327 130.962C399.782 130.488 399.129 130.134 398.417 129.926C397.704 129.718 396.95 129.66 396.21 129.758C394.737 130.067 393.289 130.469 391.876 130.962C383.993 132.268 375.922 132.268 368.039 130.962H366.956C366.781 132.033 366.855 133.127 367.173 134.17Z" fill="#DEDEDE"/>
<path d="M415.716 113.716C414.667 109.555 412.209 105.813 408.701 103.035C405.193 100.257 400.818 98.589 396.213 98.2736C391.723 97.7149 387.157 98.0139 382.796 99.1521C378.436 100.29 374.373 102.244 370.86 104.892C367.075 107.679 364.159 111.347 362.409 115.52C361.233 117.52 360.617 119.761 360.617 122.038C360.617 124.315 361.233 126.556 362.409 128.556C363.036 129.327 363.615 130.13 364.143 130.962C364.358 131.404 364.469 131.882 364.469 132.366C364.469 132.85 364.358 133.329 364.143 133.77C363.734 134.047 363.241 134.196 362.734 134.196C362.227 134.196 361.734 134.047 361.325 133.77C361.324 134.365 361.482 134.951 361.784 135.475C362.087 136 362.525 136.448 363.059 136.778C363.659 137.076 364.329 137.233 365.01 137.233C365.69 137.233 366.36 137.076 366.96 136.778C365.662 131.769 365.662 126.546 366.96 121.537C372.097 119.774 376.549 116.631 379.745 112.512C379.565 116.014 377.936 119.318 375.194 121.737C383.697 121.927 392.045 119.61 399.03 115.119C397.697 116.454 396.666 118.023 395.997 119.732C395.574 120.545 395.355 121.436 395.355 122.339C395.355 123.241 395.574 124.133 395.997 124.946C395.997 124.946 397.73 126.952 397.73 128.155C397.818 128.605 397.736 129.068 397.5 129.469C397.263 129.871 396.886 130.185 396.43 130.361C395.991 130.556 395.509 130.658 395.022 130.658C394.534 130.658 394.053 130.556 393.613 130.361C394.174 131.572 395.113 132.601 396.31 133.316C397.507 134.031 398.907 134.398 400.331 134.372C403.209 134.239 405.923 133.091 407.915 131.163C410.542 128.979 412.606 126.278 413.956 123.259C415.306 120.24 415.908 116.978 415.716 113.716Z" fill="#646464"/>
<g style="mix-blend-mode:multiply" opacity="0.52">
<g style="mix-blend-mode:multiply" opacity="0.52">
<path d="M420.482 190.923C416.837 194.38 413.965 198.47 412.031 202.956C409.693 207.67 408.088 212.666 407.263 217.796C406.519 222.047 406.519 226.38 407.263 230.631H410.731C419.151 216.107 426.394 201.025 432.4 185.509C427.913 186.115 423.745 188.009 420.482 190.923Z" fill="#EDEEEE"/>
</g>
</g>
<g style="mix-blend-mode:multiply">
<g style="mix-blend-mode:multiply">
<path d="M391.665 226.017C390.149 226.017 391.665 228.223 391.665 228.825C391.665 229.426 391.665 228.825 391.665 228.825C391.928 228.509 392.071 228.121 392.071 227.722C392.071 227.323 391.928 226.935 391.665 226.619V226.017Z" fill="#EDEEEE"/>
</g>
</g>
<g style="mix-blend-mode:multiply">
<g style="mix-blend-mode:multiply">
<path d="M389.927 218.997C388.626 218.997 389.927 221.204 389.927 221.805C390.137 221.47 390.247 221.089 390.247 220.702C390.247 220.315 390.137 219.934 389.927 219.599V218.997Z" fill="#EDEEEE"/>
</g>
</g>
<path d="M381.911 253.492L338.572 252.49C337.818 252.449 337.102 252.167 336.548 251.691C335.995 251.215 335.638 250.576 335.538 249.883L332.288 193.33C332.288 192.585 332.607 191.871 333.176 191.345C333.745 190.818 334.517 190.523 335.321 190.523H344.206H371.942H378.877C379.265 190.495 379.654 190.542 380.022 190.66C380.389 190.779 380.725 190.966 381.01 191.211C381.295 191.456 381.522 191.753 381.677 192.083C381.832 192.413 381.912 192.769 381.911 193.129L385.811 250.083C385.959 250.575 385.959 251.096 385.811 251.588C385.662 252.08 385.372 252.525 384.971 252.876C384.57 253.226 384.073 253.469 383.533 253.578C382.994 253.687 382.433 253.657 381.911 253.492Z" fill="#393939"/>
<g style="mix-blend-mode:multiply">
<g style="mix-blend-mode:multiply">
<path d="M369.772 197.742C368.099 200.821 365.176 203.161 361.644 204.251C358.111 205.341 354.255 205.092 350.921 203.558C348.357 202.376 346.251 200.488 344.893 198.154C343.535 195.82 342.992 193.153 343.337 190.522H371.073C371.358 192.993 370.908 195.49 369.772 197.742Z" fill="#4D313B"/>
</g>
</g>
<path d="M434.235 237.728C432.635 238.124 430.958 238.124 429.358 237.728L388.716 228.581L383.839 227.587V216.451H390.951L423.262 219.633L413.507 184.833L432.609 169.72L435.251 176.481L442.77 225.399C443.306 228.141 442.709 230.98 441.109 233.291C439.508 235.603 437.036 237.199 434.235 237.728Z" fill="#AFABA9"/>
<g style="mix-blend-mode:multiply">
<g style="mix-blend-mode:multiply">
<path d="M392.093 222.81C391.892 221.418 391.453 220.064 390.792 218.799V217.595H383.208V227.423L388.409 228.426H392.526C392.643 226.544 392.498 224.657 392.093 222.81Z" fill="#AFABA9"/>
</g>
</g>
<path d="M387.545 225.617C387.773 225.592 387.994 225.525 388.194 225.421C388.394 225.316 388.57 225.176 388.712 225.008C388.853 224.84 388.956 224.648 389.016 224.443C389.077 224.237 389.092 224.023 389.062 223.812C389.065 223.419 388.912 223.039 388.633 222.743C388.353 222.447 387.966 222.257 387.545 222.208C387.545 222.208 389.062 222.207 389.062 221.004C389.062 219.801 389.062 219.4 387.978 218.999C386.895 218.598 389.062 217.595 387.978 216.793C387.425 216.004 386.576 215.433 385.595 215.189H382.561H371.293C371.057 215.082 370.797 215.027 370.534 215.027C370.272 215.027 370.012 215.082 369.776 215.189C369.635 215.362 369.559 215.573 369.559 215.79C369.559 216.007 369.635 216.218 369.776 216.392C369.899 216.675 370.108 216.921 370.376 217.098C370.645 217.276 370.963 217.379 371.293 217.395C370.868 217.392 370.457 217.533 370.138 217.792C369.818 218.05 369.612 218.409 369.559 218.799C369.444 219.017 369.385 219.257 369.385 219.5C369.385 219.743 369.444 219.983 369.559 220.202C369.559 220.202 369.559 220.202 369.559 221.205C369.559 222.208 369.559 222.609 369.559 223.01H371.509C371.357 223.254 371.277 223.53 371.277 223.812C371.277 224.094 371.357 224.37 371.509 224.614C371.865 225.275 372.488 225.779 373.243 226.018C376.444 227.971 380.254 228.888 384.078 228.625C384.648 228.641 385.215 228.542 385.739 228.335C386.263 228.127 386.731 227.815 387.111 227.421C387.32 227.168 387.467 226.875 387.542 226.563C387.617 226.252 387.618 225.929 387.545 225.617Z" fill="#AFABA9"/>
<g style="mix-blend-mode:multiply" opacity="0.5">
<g style="mix-blend-mode:multiply" opacity="0.5">
<path d="M381.691 224.614C378.328 225.22 374.87 225.22 371.507 224.614C374.944 225.211 378.471 225.211 381.908 224.614C381.908 224.614 382.125 224.414 381.691 224.614Z" fill="#AFABA9"/>
</g>
</g>
<path d="M436.114 239.519C435.446 235.983 434.03 232.604 431.948 229.576C429.866 226.548 427.158 223.929 423.98 221.872L414.662 190.387C413.796 187.637 413.796 184.715 414.662 181.964C417.479 171.536 423.763 167.726 433.948 171.536L436.981 178.355L444.782 227.687C445.185 230.304 444.521 232.966 442.919 235.153C441.316 237.341 438.89 238.897 436.114 239.519Z" fill="#C5C5C5"/>
<path d="M424.82 218.598L417.236 219.801C417.236 219.801 426.987 232.436 422.437 237.449L439.339 239.254C439.339 239.254 445.623 231.633 424.82 218.598Z" fill="#D4D4D4"/>
<path d="M285.849 139.219L303.451 138.984C304.043 138.97 304.627 139.126 305.14 139.434C305.652 139.743 306.074 140.193 306.358 140.734L318.146 167.902L317.694 169.72H297.25L285.3 141.711L285.849 139.219Z" fill="#087ABC"/>
<path d="M282.015 148.209L284.182 151.618C284.906 152.66 285.42 153.815 285.699 155.027C286.128 156.685 287.025 158.207 288.299 159.439L293.716 165.054L295.666 161.244L288.515 156.03C286.349 149.212 283.965 148.209 282.232 148.209H282.015Z" fill="#AFABA9"/>
<g style="mix-blend-mode:multiply" opacity="0.43">
<g style="mix-blend-mode:multiply" opacity="0.43">
<path d="M282.663 147.205L285.047 150.814C285.769 151.785 286.284 152.874 286.564 154.023C287.037 155.665 287.929 157.178 289.164 158.435L294.148 163.449L296.099 159.639L288.947 154.425C286.78 147.606 284.397 146.603 282.663 146.603V147.205Z" fill="#AFABA9"/>
</g>
</g>
<path d="M294.582 167.258C293.588 164.614 293.075 161.836 293.065 159.037C293.065 159.037 293.065 157.633 294.799 157.432L303.684 155.828C303.684 155.828 304.767 157.031 303.684 158.034L297.182 159.638L294.582 167.258Z" fill="#AFABA9"/>
<g style="mix-blend-mode:multiply" opacity="0.43">
<g style="mix-blend-mode:multiply" opacity="0.43">
<path d="M297.184 161.844L303.035 159.438H304.118C304.118 161.042 299.351 162.847 299.351 162.847V166.457L296.751 167.459C296.751 167.459 296.101 162.245 297.184 161.844Z" fill="#AFABA9"/>
</g>
</g>
</svg>
