<svg width="418" height="414" viewBox="0 0 418 414" fill="none" xmlns="http://www.w3.org/2000/svg">
<path d="M4.18506 411.276C53.3376 376.555 26.6878 313.11 14.1589 196.818C-22.6233 33.8977 85.5007 -63.3431 175.774 49.2301C253.487 132.631 309.896 19.5257 374.05 124.744C417.509 196.019 381.354 276.441 380.286 334.808C379.445 380.817 408.348 411.276 408.348 411.276H4.18506Z" fill="#FFE6C7"/>
<path d="M407.656 413.353H0.722381C0.530794 413.353 0.347054 413.236 0.211581 413.028C0.0761084 412.819 0 412.537 0 412.243C0 411.948 0.0761084 411.666 0.211581 411.457C0.347054 411.249 0.530794 411.132 0.722381 411.132H407.656C407.848 411.132 408.031 411.249 408.167 411.457C408.302 411.666 408.379 411.948 408.379 412.243C408.379 412.537 408.302 412.819 408.167 413.028C408.031 413.236 407.848 413.353 407.656 413.353Z" fill="black"/>
<path d="M255.29 63.4934H91.9297V131.096H255.29V63.4934Z" fill="#7469AD"/>
<path d="M132.709 67.4471H95.6465V127.175H132.709V67.4471Z" fill="#2F2767"/>
<path d="M129.132 92.071H126.7V102.486H129.132V92.071Z" fill="#7469AD"/>
<path d="M175.711 67.4471H138.648V127.175H175.711V67.4471Z" fill="#2F2767"/>
<path d="M172.134 92.071H169.702V102.486H172.134V92.071Z" fill="#7469AD"/>
<path d="M249.767 67.8008H183.388V87.2492H249.767V67.8008Z" fill="#C4E7FB"/>
<path d="M249.767 90.1103H183.388V126.95H249.767V90.1103Z" fill="#C4E7FB"/>
<path d="M208.467 102.551V96.7003H225.974V102.551H228.37V94.4823H206.07V102.551H208.467Z" fill="#2F2767"/>
<path d="M234.692 100.911H199.714V127.046H234.692V100.911Z" fill="#4CB4D2"/>
<path d="M225.487 105.412H208.953C207.84 105.412 206.938 106.247 206.938 107.276V120.681C206.938 121.711 207.84 122.546 208.953 122.546H225.487C226.599 122.546 227.501 121.711 227.501 120.681V107.276C227.501 106.247 226.599 105.412 225.487 105.412Z" fill="#7469AD"/>
<path d="M223.611 112.13H219.2V108.048H215.24V112.13H210.829V115.795H215.24V119.877H219.2V115.795H223.611V112.13Z" fill="white"/>
<path d="M103.239 175.571L101.902 341.846H103.43L106.294 175.571H103.239ZM56.0784 175.571L59.7062 341.846H57.9879L53.0234 175.747L56.0784 175.571Z" fill="#231F1E"/>
<path d="M72.4998 343.26H81.0918V330.184H72.4998V343.26Z" fill="url(#paint0_linear_528_14536)"/>
<path d="M64.8604 311.278L65.6243 317.639L68.2974 336.722H85.4816L88.3459 316.402L88.9187 311.278H64.8604Z" fill="url(#paint1_linear_528_14536)"/>
<path d="M64.8604 311.278L65.6243 317.639L69.443 319.582L71.5433 336.722H75.7439L76.8895 318.699L88.3459 316.402L88.9187 311.278H64.8604Z" fill="#1F2D3C"/>
<path d="M148.107 255.616C141.606 270.064 132.998 283.619 122.522 295.904C123.582 296.429 124.603 297.019 125.577 297.671C145.417 285.201 159.459 266.276 164.909 244.661C145.244 241.043 125.003 241.043 105.338 244.661L95.6006 246.428C95.6006 248.195 94.2642 251.552 93.6914 253.319C111.766 250.025 130.432 250.813 148.107 255.616Z" fill="url(#paint2_linear_528_14536)"/>
<path d="M148.107 255.617C141.606 270.064 132.997 283.62 122.521 295.905C125.206 294.769 127.661 293.215 129.777 291.311C141.421 279.548 149.692 265.271 153.835 249.786C137.607 247.461 121.17 246.633 104.765 247.312C105.144 246.221 105.144 245.046 104.765 243.955L95.0268 245.722C95.0268 247.489 93.6905 250.846 93.1177 252.613C111.439 249.461 130.314 250.492 148.107 255.617Z" fill="#1F2D3C"/>
<path d="M32.7842 254.556C36.1321 255.671 39.5832 256.499 43.0945 257.03C50.0538 258.453 57.1609 259.164 64.288 259.151H66.9611C72.3072 259.151 78.0352 259.151 83.9541 257.56C89.1223 256.759 94.1386 255.271 98.8471 253.143C115.597 222.873 119.611 187.926 110.112 155.074C79.7342 145.686 47.2723 143.619 15.7912 149.066C11.4243 184.999 17.2823 221.365 32.7842 254.556Z" fill="url(#paint3_linear_528_14536)"/>
<path d="M0.327148 161.613C0.960229 194.187 10.2732 226.113 27.4396 254.557C32.4616 256.7 37.8042 258.13 43.2871 258.798C50.2757 259.34 57.3009 259.34 64.2895 258.798H56.2704C52.5443 258.599 48.8412 258.127 45.1962 257.384H42.3323C38.8211 256.853 35.37 256.025 32.0221 254.91C16.4204 221.558 10.5605 184.998 15.0291 148.89L0.327148 161.613Z" fill="#1F2D3C"/>
<path d="M20.7578 282.828C21.9058 288.548 24.2399 294.009 27.6314 298.908H30.6864C61.2566 303.873 92.5275 303.873 123.098 298.908H127.871C132.15 293.127 134.477 286.3 134.554 279.294C112.525 274.277 89.7516 272.665 67.1546 274.523C61.0448 274.523 54.9349 275.76 48.0613 276.644C38.8162 278.117 29.6929 280.183 20.7578 282.828Z" fill="url(#paint4_linear_528_14536)"/>
<path d="M30.6855 299.438L31.8311 302.619C31.8311 304.386 33.1678 306.153 33.7406 308.097L38.3228 309.157L52.0701 311.277C74.4081 314.283 97.1362 313.745 119.279 309.687C120.576 307.319 121.6 304.832 122.334 302.265C122.444 301.444 122.444 300.613 122.334 299.791C91.9904 304.557 60.9853 304.438 30.6855 299.438Z" fill="url(#paint5_linear_528_14536)"/>
<path d="M30.6855 299.438L31.8311 302.619L37.75 304.739V309.157L51.4972 311.277C51.4972 309.51 51.4972 307.566 51.4972 305.799C75.1107 307.538 98.8693 306.35 122.143 302.265C122.252 301.444 122.252 300.613 122.143 299.791C91.8613 304.537 60.923 304.417 30.6855 299.438Z" fill="#1F2D3C"/>
<path d="M43.2871 258.797C44.4026 264.883 46.3266 270.818 49.0152 276.467C54.9341 276.467 61.044 274.877 68.1085 274.347C66.5838 269.328 65.6239 264.176 65.2443 258.974C57.9337 259.508 50.5866 259.449 43.2871 258.797Z" fill="url(#paint6_linear_528_14536)"/>
<path d="M43.2864 258.797C44.3404 264.896 46.2667 270.839 49.0146 276.467H43.2864C39.263 270.38 36.9643 263.451 36.6035 256.323L43.2864 258.797Z" fill="#1F2D3C"/>
<path d="M24.3848 285.655C59.8067 293.399 96.8401 292.055 131.498 281.768C96.2145 288.094 60.0951 289.405 24.3848 285.655Z" fill="#9AA4A6"/>
<path style="mix-blend-mode:screen" d="M17.5109 151.362C16.747 158.649 16.747 165.987 17.5109 173.273C28.8643 185.76 43.1791 195.653 59.3406 202.181C75.502 208.709 93.0739 211.697 110.687 210.911C113.475 193.219 112.371 175.188 107.441 157.9C78.5944 148.497 47.5907 146.243 17.5109 151.362Z" fill="url(#paint7_linear_528_14536)"/>
<path d="M122.716 372.769H125.198L125.962 362.52H122.143L122.716 372.769Z" fill="#1F2D3C"/>
<path d="M108.394 377.01C108.394 379.681 109.541 382.243 111.582 384.132C113.623 386.021 116.391 387.082 119.277 387.082C122.164 387.082 124.932 386.021 126.973 384.132C129.014 382.243 130.161 379.681 130.161 377.01C130.161 374.339 129.014 371.777 126.973 369.888C124.932 367.999 122.164 366.938 119.277 366.938C116.391 366.938 113.623 367.999 111.582 369.888C109.541 371.777 108.394 374.339 108.394 377.01Z" fill="url(#paint8_radial_528_14536)"/>
<path d="M118.706 388.319H124.434C127.455 388.052 130.255 386.738 132.273 384.641C134.292 382.544 135.379 379.818 135.317 377.01C135.268 374.353 134.106 371.818 132.075 369.938C130.045 368.059 127.305 366.984 124.434 366.938H118.706C121.592 366.938 124.36 367.999 126.401 369.888C128.442 371.777 129.589 374.339 129.589 377.01C129.651 379.818 128.564 382.544 126.545 384.641C124.527 386.738 121.727 388.052 118.706 388.319Z" fill="url(#paint9_linear_528_14536)"/>
<path d="M108.394 377.01C108.394 379.681 109.541 382.243 111.582 384.132C113.623 386.021 116.391 387.082 119.277 387.082C122.164 387.082 124.932 386.021 126.973 384.132C129.014 382.243 130.161 379.681 130.161 377.01C130.161 374.339 129.014 371.777 126.973 369.888C124.932 367.999 122.164 366.938 119.277 366.938C116.391 366.938 113.623 367.999 111.582 369.888C109.541 371.777 108.394 374.339 108.394 377.01Z" fill="url(#paint10_radial_528_14536)"/>
<path style="mix-blend-mode:screen" d="M115.46 368.705C117.083 367.935 118.92 367.641 120.728 367.862C122.536 368.083 124.228 368.809 125.579 369.942C126.924 371.051 127.931 372.466 128.5 374.047C129.069 375.629 129.182 377.32 128.825 378.954C128.419 380.586 127.626 382.115 126.503 383.429C125.38 384.743 123.956 385.809 122.334 386.552C123.827 385.095 124.85 383.28 125.289 381.313C125.727 379.346 125.564 377.305 124.816 375.42C124.123 373.584 122.871 371.974 121.211 370.782C119.551 369.591 117.553 368.869 115.46 368.705Z" fill="url(#paint11_linear_528_14536)"/>
<path d="M28.5854 372.769H30.8766L31.6405 362.52H27.8218L28.5854 372.769Z" fill="#1F2D3C"/>
<path d="M14.0752 377.01C14.0752 379.681 15.2218 382.243 17.2627 384.132C19.3037 386.021 22.0718 387.082 24.9581 387.082C27.8445 387.082 30.6129 386.021 32.6538 384.132C34.6948 382.243 35.8414 379.681 35.8414 377.01C35.8414 374.339 34.6948 371.777 32.6538 369.888C30.6129 367.999 27.8445 366.938 24.9581 366.938C22.0718 366.938 19.3037 367.999 17.2627 369.888C15.2218 371.777 14.0752 374.339 14.0752 377.01Z" fill="url(#paint12_radial_528_14536)"/>
<path d="M24.958 388.319H30.6859C33.7068 388.052 36.5071 386.738 38.5254 384.641C40.5437 382.544 41.6309 379.818 41.569 377.01C41.5199 374.353 40.3574 371.818 38.327 369.938C36.2966 368.059 33.5569 366.984 30.6859 366.938H24.958C27.8443 366.938 30.6126 367.999 32.6536 369.888C34.6945 371.777 35.841 374.339 35.841 377.01C35.903 379.818 34.8158 382.544 32.7975 384.641C30.7792 386.738 27.9789 388.052 24.958 388.319Z" fill="url(#paint13_linear_528_14536)"/>
<path d="M14.0752 377.01C14.0752 379.681 15.2218 382.243 17.2627 384.132C19.3037 386.021 22.0718 387.082 24.9581 387.082C27.8445 387.082 30.6129 386.021 32.6538 384.132C34.6948 382.243 35.8414 379.681 35.8414 377.01C35.8414 374.339 34.6948 371.777 32.6538 369.888C30.6129 367.999 27.8445 366.938 24.9581 366.938C22.0718 366.938 19.3037 367.999 17.2627 369.888C15.2218 371.777 14.0752 374.339 14.0752 377.01Z" fill="url(#paint14_radial_528_14536)"/>
<path style="mix-blend-mode:screen" d="M21.1382 368.705C22.761 367.935 24.5987 367.641 26.4066 367.862C28.2144 368.083 29.9066 368.809 31.2578 369.942C32.6021 371.051 33.609 372.466 34.1785 374.047C34.748 375.629 34.8602 377.32 34.5037 378.954C34.0972 380.586 33.3041 382.115 32.1813 383.429C31.0586 384.743 29.6345 385.809 28.0119 386.552C29.5052 385.095 30.529 383.28 30.9676 381.313C31.4062 379.346 31.2422 377.305 30.4942 375.42C29.8014 373.584 28.5492 371.974 26.8891 370.782C25.2289 369.591 23.2316 368.869 21.1382 368.705Z" fill="url(#paint15_linear_528_14536)"/>
<path d="M65.4334 367.998H67.9155L68.6794 357.749H64.8604L65.4334 367.998Z" fill="#1F2D3C"/>
<path d="M51.1167 372.239C51.1167 373.562 51.398 374.871 51.945 376.093C52.4919 377.315 53.2936 378.426 54.3042 379.361C55.3148 380.296 56.5146 381.038 57.835 381.544C59.1554 382.05 60.5705 382.311 61.9996 382.311C63.4288 382.311 64.8439 382.05 66.1643 381.544C67.4847 381.038 68.6845 380.296 69.6951 379.361C70.7056 378.426 71.5074 377.315 72.0543 376.093C72.6012 374.871 72.8829 373.562 72.8829 372.239C72.8829 369.568 71.736 367.006 69.6951 365.117C67.6541 363.228 64.886 362.167 61.9996 362.167C59.1133 362.167 56.3452 363.228 54.3042 365.117C52.2633 367.006 51.1167 369.568 51.1167 372.239Z" fill="url(#paint16_radial_528_14536)"/>
<path d="M61.4272 383.548H67.1554C70.1764 383.281 72.9765 381.967 74.9949 379.87C77.0132 377.772 78.1004 375.047 78.0385 372.239C77.9895 369.582 76.8272 367.046 74.7968 365.167C72.7663 363.288 70.0265 362.212 67.1554 362.167H61.4272C64.3137 362.167 67.0818 363.228 69.1228 365.117C71.1638 367.006 72.3107 369.568 72.3107 372.239C72.3726 375.047 71.2854 377.772 69.267 379.87C67.2487 381.967 64.4482 383.281 61.4272 383.548Z" fill="url(#paint17_linear_528_14536)"/>
<path d="M51.1167 372.239C51.1167 373.562 51.398 374.871 51.945 376.093C52.4919 377.315 53.2936 378.426 54.3042 379.361C55.3148 380.296 56.5146 381.038 57.835 381.544C59.1554 382.05 60.5705 382.311 61.9996 382.311C63.4288 382.311 64.8439 382.05 66.1643 381.544C67.4847 381.038 68.6845 380.296 69.6951 379.361C70.7056 378.426 71.5074 377.315 72.0543 376.093C72.6012 374.871 72.8829 373.562 72.8829 372.239C72.8829 369.568 71.736 367.006 69.6951 365.117C67.6541 363.228 64.886 362.167 61.9996 362.167C59.1133 362.167 56.3452 363.228 54.3042 365.117C52.2633 367.006 51.1167 369.568 51.1167 372.239Z" fill="url(#paint18_radial_528_14536)"/>
<path style="mix-blend-mode:screen" d="M58.1812 363.933C59.8161 363.21 61.6428 362.942 63.4392 363.162C65.2356 363.381 66.9244 364.079 68.3005 365.17C69.6448 366.279 70.6517 367.695 71.2212 369.276C71.7906 370.857 71.9028 372.548 71.5463 374.182C71.166 375.824 70.3829 377.363 69.2573 378.681C68.1316 379.998 66.6937 381.059 65.0547 381.78C66.548 380.323 67.5715 378.508 68.01 376.541C68.4486 374.574 68.2849 372.533 67.5369 370.648C66.8441 368.812 65.592 367.202 63.9319 366.01C62.2718 364.819 60.2745 364.097 58.1812 363.933Z" fill="url(#paint19_linear_528_14536)"/>
<path d="M74.7894 344.144C70.8267 344.816 67.245 346.754 64.6699 349.621C61.8252 352.258 59.954 355.66 59.3237 359.34C62.9116 360.484 66.8101 360.484 70.398 359.34C73.2324 352.987 78.361 347.741 84.909 344.497C81.6316 343.539 78.1355 343.417 74.7894 344.144Z" fill="#476476"/>
<path d="M21.9004 361.991C36.9923 348.843 56.7472 341.241 77.4622 340.61C97.5724 340.952 116.829 348.193 131.497 360.93C126.976 363.287 121.705 364.1 116.604 363.227C111.76 357.918 105.701 353.674 98.8645 350.801C92.0284 347.928 84.5873 346.499 77.0806 346.618C69.398 346.278 61.7278 347.494 54.605 350.179C47.4821 352.865 41.0779 356.956 35.8388 362.167C33.7833 363.481 31.337 364.169 28.8393 364.138C26.3416 364.106 23.9162 363.356 21.9004 361.991Z" fill="url(#paint20_linear_528_14536)"/>
<path style="mix-blend-mode:screen" d="M87.9634 342.377C100.977 346.727 113.015 353.256 123.477 361.637C124.47 361.773 125.483 361.701 126.442 361.426C127.401 361.151 128.28 360.679 129.014 360.046C117.284 350.866 103.108 344.764 87.9634 342.377Z" fill="url(#paint21_linear_528_14536)"/>
<path style="mix-blend-mode:screen" d="M23.2397 362.166C30.3087 355.89 38.6907 351.019 47.87 347.853C40.2318 351.28 33.6612 356.448 28.7767 362.873C27.8517 363.12 26.8809 363.185 25.9271 363.064C24.9732 362.942 24.0577 362.636 23.2397 362.166Z" fill="url(#paint22_linear_528_14536)"/>
<path d="M206.727 377.893C204.156 382.44 199.878 385.959 194.698 387.789C187.166 388.837 179.508 388.837 171.977 387.789C166.188 386.895 160.7 384.779 155.938 381.604C155.247 379.028 155.233 376.335 155.897 373.753C156.562 371.17 157.885 368.773 159.757 366.761H175.032C176.86 369.162 179.12 371.254 181.714 372.946C186.877 373.947 192.208 373.947 197.371 372.946C198.898 372.946 200.235 371.532 201.571 371.002C203.113 371.491 204.444 372.424 205.372 373.664C206.299 374.904 206.774 376.386 206.727 377.893Z" fill="#4F4F4F"/>
<path d="M206.535 378.424C203.964 382.97 199.686 386.49 194.506 388.32C186.975 389.368 179.316 389.368 171.785 388.32C165.996 387.426 160.508 385.31 155.747 382.135C155.055 379.559 155.041 376.866 155.705 374.284C156.37 371.701 157.693 369.304 159.565 367.292H172.549H175.413C172.986 369.89 169.903 371.893 166.439 373.123C167.966 375.067 169.494 377.718 171.021 379.838C174.406 378.584 177.561 376.856 180.377 374.714C179.231 376.481 177.513 378.424 176.367 380.191C182.561 381.886 189.092 382.249 195.461 381.252C199.088 381.252 200.807 377.364 202.525 374.537C203.8 374.878 204.975 375.482 205.962 376.304L206.535 378.424Z" fill="#2C2A29"/>
<path d="M195.079 302.618C188.396 320.288 180.186 337.959 172.549 356.512L176.558 359.869C176.558 361.283 176.558 363.403 175.222 364.994L177.322 366.407C176.742 367.979 175.704 369.372 174.323 370.432C172.941 371.492 171.27 372.179 169.494 372.415C167.717 372.595 165.925 372.595 164.148 372.415L158.42 371.178C158.42 364.464 155.938 357.926 155.747 351.211C155.726 341.884 154.638 332.584 152.501 323.469C152.559 322.704 152.559 321.937 152.501 321.172C149.535 312.638 145.632 304.408 140.854 296.611C138.209 292.8 136.694 288.412 136.462 283.888C136.666 281.305 137.58 278.812 139.117 276.647C140.654 274.482 142.764 272.717 145.245 271.519C150.243 269.142 155.9 268.218 161.475 268.869C166.508 269.068 171.502 269.779 176.367 270.989L178.849 272.049L184.005 274.7C189.806 278.33 194.744 283.021 198.515 288.482C198.137 293.327 196.978 298.091 195.079 302.618Z" fill="#6E7173"/>
<path d="M184.004 275.937C180.7 277.789 177.736 280.115 175.221 282.828C173.808 285.272 172.779 287.89 172.166 290.603C170.44 296.383 169.289 302.298 168.729 308.273C166.819 322.762 164.91 337.429 163.192 351.918C162.652 353.746 162.561 355.663 162.924 357.527C163.288 359.392 164.097 361.158 165.292 362.697C164.546 363.272 163.964 364.008 163.598 364.84C163.232 365.672 163.092 366.574 163.192 367.468C163.378 368.399 163.83 369.267 164.502 369.982C165.173 370.697 166.039 371.232 167.01 371.532H163.192L157.464 370.295C157.464 363.58 154.981 357.042 154.79 350.328C154.769 341 153.681 331.701 151.545 322.586C151.602 321.821 151.602 321.053 151.545 320.289C151.545 318.698 151.545 316.931 151.545 315.164C149.994 305.803 147.37 296.622 143.716 287.776C142.652 286.047 141.999 284.128 141.802 282.147C141.604 280.167 141.866 278.169 142.571 276.29C144.022 274.667 145.87 273.388 147.962 272.558C150.054 271.729 152.329 271.372 154.6 271.519L169.683 270.282C171.843 270.105 174.015 270.105 176.175 270.282H178.085C180.063 271.298 181.975 272.419 183.813 273.639C183.813 273.639 184.004 275.76 184.004 275.937Z" fill="#484949"/>
<path d="M206.344 240.951C193.624 241.596 180.876 241.596 168.157 240.951C163.623 236.067 160.008 230.511 157.465 224.518C151.355 211.972 146.2 199.426 141.236 186.527L134.362 167.09C136.899 159.539 142.515 153.201 150.019 149.42C152.996 147.754 156.566 147.245 159.947 148.006C163.384 149.243 165.102 152.777 166.63 155.781C175.734 175.586 182.148 196.36 185.723 217.626C192.874 218.197 199.926 219.562 206.725 221.69C207.411 223.41 207.923 225.184 208.253 226.991C208.915 231.719 208.257 236.525 206.344 240.951Z" fill="#F4F4F4"/>
<g style="mix-blend-mode:multiply">
<path d="M206.344 240.95C193.625 241.595 180.877 241.595 168.158 240.95C163.623 236.066 160.009 230.511 157.465 224.517C151.355 211.971 146.2 199.426 141.236 186.526C141.591 183.655 142.428 180.853 143.718 178.221C144.826 175.632 146.58 173.323 148.837 171.48C151.093 169.638 153.788 168.315 156.702 167.619C160.154 185.524 164.744 203.225 170.449 220.63C173.109 219.018 176.246 218.215 179.423 218.333L173.504 222.927L208.063 226.461C208.886 231.346 208.293 236.347 206.344 240.95Z" fill="#FEEADC"/>
</g>
<path d="M182.86 398.745C176.329 402.914 168.787 405.524 160.902 406.343C153.912 404.736 147.392 401.719 141.809 397.508C139.605 396.15 137.774 394.335 136.463 392.207C135.771 390.16 135.55 388.003 135.813 385.873C136.076 383.742 136.818 381.687 137.99 379.838C140.774 378.095 144.005 377.062 147.357 376.845C150.71 376.628 154.065 377.234 157.084 378.601L159.375 383.018L162.621 389.026C168.345 392.291 174.996 393.891 181.714 393.62C182.658 395.178 183.058 396.968 182.86 398.745Z" fill="#4F4F4F"/>
<path d="M182.86 398.744C176.33 402.913 168.787 405.524 160.903 406.342C153.913 404.735 147.393 401.718 141.809 397.507C139.605 396.15 137.774 394.335 136.463 392.206C135.771 390.16 135.55 388.003 135.813 385.872C136.076 383.742 136.818 381.687 137.99 379.838C139.524 378.991 141.203 378.393 142.955 378.071C146.992 377.363 151.137 377.363 155.175 378.071H157.084L159.375 382.488C156.025 384.832 152.191 386.516 148.11 387.436L150.21 394.15L160.521 389.556C158.039 391.676 155.556 394.15 153.074 396.094L163.385 400.511L179.423 395.034C180.347 394.65 181.14 394.038 181.715 393.267C182.739 394.926 183.142 396.851 182.86 398.744Z" fill="#2C2A29"/>
<path d="M160.329 317.108C158.391 337.141 157.563 357.252 157.848 377.363L159.566 380.19C156.308 383.379 151.884 385.332 147.155 385.668C144.759 386.097 142.296 386.097 139.9 385.668C137.571 385.091 135.373 384.133 133.408 382.841C133.408 380.19 133.408 377.717 133.408 375.066C135.89 353.155 121.379 334.955 120.233 312.867C115.078 312.867 110.114 308.626 107.059 305.622C104.004 302.619 107.059 294.314 110.305 290.249C113.156 286.312 117.309 283.336 122.143 281.768C125.907 280.589 129.823 279.876 133.79 279.647H138.754L142.191 281.591C148.725 285.459 154.638 290.158 159.757 295.551C161.823 302.589 162.019 309.984 160.329 317.108Z" fill="#727272"/>
<path d="M140.854 381.781C141.156 382.265 141.314 382.813 141.314 383.371C141.314 383.93 141.156 384.478 140.854 384.962C138.525 384.385 136.327 383.427 134.362 382.134C134.362 379.484 134.362 377.01 134.362 374.36C136.844 352.449 122.333 334.249 121.188 312.161C116.032 312.161 111.068 307.92 108.013 304.916C104.958 301.912 108.013 293.607 111.259 289.543C114.11 285.605 118.263 282.629 123.097 281.062C126.861 279.883 130.777 279.17 134.744 278.941C137.587 279.342 140.394 279.933 143.145 280.708H144.482C136.255 285.137 130.225 292.366 127.679 300.852L129.207 303.856L141.809 300.675C139.363 302.056 137.225 303.855 135.508 305.976C134.095 307.979 133.302 310.301 133.216 312.691C133.204 318.276 134.171 323.826 136.081 329.124C140.466 345.405 142.204 362.199 141.236 378.954C144.291 378.954 147.346 378.954 150.401 378.954L140.854 381.781Z" fill="#484949"/>
<path d="M187.823 276.291C185.914 274.877 178.467 276.291 175.985 276.291C173.503 276.291 167.775 276.291 163.766 277.351C155.51 278.53 147.391 280.423 139.517 283.005C132.339 284.825 125.773 288.289 120.424 293.077C115.948 298.019 113.572 304.301 113.741 310.747C91.8113 304.36 71.4893 293.965 53.9787 280.178C47.7482 268.729 43.496 256.446 41.3771 243.778C38.6161 222.875 40.3685 201.673 46.5324 181.402C50.351 167.443 53.9788 148.359 68.6807 143.412C86.363 137.5 105.063 134.626 123.861 134.93C138.944 134.93 162.047 134.93 167.393 151.187C167.393 151.187 167.393 151.187 167.393 152.07C168.353 155.63 168.509 159.334 167.852 162.952C167.195 166.57 165.739 170.024 163.575 173.098C158.398 179.881 152.787 186.372 146.772 192.535C141.289 198.946 136.553 205.876 132.643 213.209C128.825 220.277 125.579 227.698 122.333 235.119C123.288 236.356 124.433 237.77 125.197 239.007C125.961 240.244 123.67 242.011 122.906 243.248C146.209 251.194 168.092 262.333 187.823 276.291Z" fill="#F4F4F4"/>
<path d="M93.6914 152.954C93.8448 148.43 94.4842 143.931 95.6006 139.525C95.3153 143.997 95.3153 148.481 95.6006 152.954C95.762 157.216 96.2085 161.465 96.9372 165.676C99.754 167.435 102.688 169.029 105.72 170.447C108.897 171.834 112.147 173.073 115.458 174.158H116.603V175.218C115.7 176.983 114.679 178.694 113.548 180.342C112.544 181.895 111.251 183.27 109.73 184.407C111.868 188.268 113.657 192.287 115.076 196.422C116.609 200.734 117.696 205.172 118.322 209.675C117.147 205.295 115.681 200.987 113.93 196.776C112.219 192.549 110.111 188.469 107.629 184.583C110.254 182.296 112.335 179.528 113.739 176.455C110.668 175.46 107.67 174.279 104.766 172.921C101.496 171.493 98.4199 169.714 95.6006 167.62C94.3952 162.809 93.7552 157.892 93.6914 152.954ZM130.923 199.249C129.205 201.547 127.486 203.49 125.768 205.611C127.885 203.796 129.862 201.848 131.687 199.779L136.842 193.595C140.143 189.266 143.202 184.784 146.007 180.166L144.098 178.399L147.343 176.632L151.926 174.335C153.801 170.219 155.023 165.875 155.553 161.435C156.32 157.046 156.32 152.572 155.553 148.183C156.033 152.53 156.033 156.911 155.553 161.259C154.772 165.405 153.425 169.443 151.544 173.274C148.298 174.688 145.434 176.632 142.379 177.869H141.043H142.188L144.67 179.989C141.997 184.407 139.324 188.647 136.46 192.888L130.923 199.249ZM111.83 225.754C120.508 214.471 126.198 201.457 128.441 187.764C124.994 201.019 119.665 213.794 112.594 225.754H111.83Z" fill="#383633"/>
<g style="mix-blend-mode:multiply">
<path d="M187.822 276.29C185.913 274.876 178.467 276.29 175.984 276.29C173.502 276.29 167.774 276.29 163.765 277.35C155.509 278.529 147.39 280.422 139.516 283.004C132.339 284.824 125.772 288.288 120.423 293.076C115.947 298.018 113.571 304.3 113.741 310.746C91.8109 304.359 71.489 293.964 53.9786 280.177C47.7481 268.728 43.4958 256.445 41.3769 243.777C41.2413 225.48 43.6803 207.244 48.6325 189.53C50.6548 180.074 53.3334 170.748 56.6516 161.611C58.4896 157.393 61.3328 153.613 64.9694 150.553C68.6059 147.494 72.9422 145.234 77.6543 143.941C89.5581 141.427 101.606 139.54 113.741 138.287C116.795 144.825 119.277 151.363 122.141 157.9L111.831 171.153C113.549 179.988 115.268 188.823 117.177 198.542C117.177 202.959 119.087 207.023 120.041 211.441L132.834 214.091C129.015 221.159 125.769 228.581 122.523 236.002C123.478 237.239 124.624 238.653 125.387 239.89C126.151 241.126 123.86 242.893 123.096 244.13C146.276 251.82 168.09 262.658 187.822 276.29Z" fill="#F6E3D3"/>
</g>
<path d="M120.808 157.194C122.257 167.138 125.896 176.7 131.5 185.29C137.889 178.083 142.572 169.715 145.247 160.728C145.247 158.431 142.574 156.487 140.283 155.957C137.815 155.605 135.304 155.605 132.837 155.957L120.808 157.194Z" fill="#909192"/>
<path d="M128.06 179.282C129.206 176.278 129.97 174.864 131.306 172.037C128.51 169.021 126.661 165.355 125.96 161.435L129.588 157.724C132.992 157.105 136.494 157.105 139.898 157.724L143.335 160.905C142.157 165.282 139.478 169.188 135.697 172.037C135.697 173.097 137.416 175.571 137.989 176.631C136.207 179.844 133.959 182.817 131.306 185.466C129.995 183.515 128.907 181.442 128.06 179.282Z" fill="#4F4F4F"/>
<path d="M121.189 115.846L114.506 131.926C119.181 141.956 126.305 150.847 135.318 157.901C137.256 153.027 139.958 148.442 143.337 144.295C142.088 138.126 139.835 132.168 136.654 126.625C135.024 123.935 132.807 121.588 130.145 119.732C127.482 117.877 124.433 116.553 121.189 115.846Z" fill="#B0AEAD"/>
<path d="M109.541 134.046C109.91 146.426 114.674 158.349 123.097 167.972C125.579 165.322 127.68 162.671 130.353 160.021C133.217 160.021 136.081 160.021 138.945 160.021L145.246 165.499C146.774 159.715 147.544 153.782 147.537 147.829C145.055 147.829 142.191 147.829 139.9 147.829C138.372 150.656 136.463 153.129 135.126 156.133C125.55 148.806 118.512 139.036 114.887 128.038L109.541 134.046Z" fill="#343637"/>
<path d="M177.894 221.866H179.612C181.331 221.866 181.903 222.927 183.24 223.633C184.569 223.817 185.92 223.817 187.249 223.633C188.641 223.969 189.942 224.571 191.068 225.4C193.741 227.697 193.359 231.231 195.841 233.705L197.751 235.295C197.935 235.623 198.031 235.986 198.031 236.355C198.031 236.725 197.935 237.088 197.751 237.416C197.751 238.476 196.223 239.006 195.078 239.359C192.482 239.707 189.845 239.707 187.249 239.359H177.894C174.712 239.861 171.441 239.428 168.538 238.123C167.356 237.391 166.365 236.424 165.639 235.293C164.912 234.162 164.467 232.895 164.337 231.585C164.337 229.464 164.337 224.87 165.865 223.28C168.351 221.675 171.247 220.701 174.266 220.453L177.894 221.866Z" fill="#C7C7C7"/>
<path d="M202.334 222.043C200.997 222.043 199.279 223.103 199.088 224.517C198.971 225.216 199.141 225.931 199.565 226.52C199.989 227.109 200.636 227.529 201.379 227.698C202.893 227.965 204.448 227.965 205.962 227.698C206.737 227.737 207.489 227.951 208.154 228.32C208.82 228.69 209.378 229.204 209.78 229.818C209.78 231.232 209.78 232.822 209.78 234.236C210.087 235.297 210.678 236.269 211.499 237.063C212.176 237.832 213.017 238.464 213.97 238.92C214.922 239.376 215.966 239.646 217.036 239.714C218.216 239.541 219.322 239.07 220.231 238.353C221.141 237.636 221.819 236.7 222.191 235.649C222.854 233.513 222.854 231.247 222.191 229.111C221.404 226.589 219.962 224.284 217.99 222.396C217.027 221.505 215.852 220.834 214.56 220.435C213.267 220.037 211.893 219.922 210.544 220.099C207.746 220.503 204.997 221.154 202.334 222.043Z" fill="#717070"/>
<path d="M217.991 222.397C219.812 222.895 221.503 223.738 222.955 224.871C222.955 224.871 224.291 224.871 224.482 226.461C224.672 226.85 224.77 227.271 224.77 227.698C224.77 228.125 224.672 228.546 224.482 228.935C223.739 230.093 222.767 231.112 221.618 231.939L217.991 233.882C216.139 235.054 214.63 236.633 213.599 238.477C213.654 238.828 213.654 239.185 213.599 239.537C213.133 239.866 212.563 240.045 211.976 240.045C211.39 240.045 210.82 239.866 210.353 239.537C210.067 237.777 210.327 235.979 211.105 234.352C211.883 232.724 213.145 231.336 214.745 230.348C215.512 230.043 216.221 229.625 216.845 229.112C217.18 228.574 217.357 227.965 217.357 227.345C217.357 226.724 217.18 226.115 216.845 225.578C216.962 224.166 216.962 222.748 216.845 221.337C217.308 221.606 217.7 221.968 217.991 222.397Z" fill="#C7C7C7"/>
<path d="M227.92 232.821C228.339 233.295 228.568 233.888 228.568 234.5C228.568 235.112 228.339 235.705 227.92 236.179C228.925 236.483 229.887 236.899 230.784 237.416C231.198 237.735 231.519 238.144 231.719 238.607C231.919 239.07 231.992 239.571 231.93 240.066C231.819 240.42 231.625 240.746 231.361 241.021C231.096 241.296 230.769 241.513 230.403 241.657H227.92C225.446 241.921 222.948 241.921 220.474 241.657C219.594 241.839 218.681 241.839 217.801 241.657C217.034 241.351 216.325 240.933 215.7 240.42C215.111 240.084 214.645 239.591 214.364 239.006C214.339 238.582 214.411 238.159 214.575 237.763C214.74 237.367 214.993 237.008 215.319 236.709C217.177 234.933 219.224 233.334 221.429 231.938C221.429 231.938 223.147 230.524 224.293 230.701C225.753 230.946 227.054 231.706 227.92 232.821Z" fill="#C7C7C7"/>
<path d="M206.344 237.063C206.204 237.481 205.954 237.86 205.616 238.166C205.279 238.473 204.865 238.697 204.412 238.82C203.958 238.942 203.479 238.959 203.016 238.868C202.554 238.777 202.123 238.582 201.762 238.3C202.235 236.86 202.235 235.322 201.762 233.882C201.762 231.939 199.089 230.702 198.134 228.935C197.571 227.63 197.571 226.175 198.134 224.871C198.412 224.184 198.845 223.561 199.405 223.043C199.965 222.524 200.638 222.123 201.38 221.866C201.855 221.648 202.378 221.535 202.907 221.535C203.437 221.535 203.96 221.648 204.435 221.866C204.989 222.344 205.387 222.956 205.581 223.634C206.563 225.942 207.081 228.397 207.108 230.878C207.007 231.819 207.007 232.766 207.108 233.706C206.979 234.846 206.723 235.971 206.344 237.063Z" fill="#C7C7C7"/>
<path d="M177.132 110.369C177.132 113.726 177.132 117.083 177.132 120.441C176.103 130.142 173.596 139.661 169.686 148.713C163.404 149.879 156.979 150.236 150.592 149.773H147.346C141.596 148.757 135.968 147.218 130.544 145.179C127.608 137.398 125.623 129.337 124.625 121.147C124.625 121.147 124.625 121.147 124.625 119.734L118.897 114.433C118.47 112.803 118.152 111.151 117.943 109.485V106.835C117.463 102.31 117.463 97.7531 117.943 93.2287C118.305 89.5034 119.337 85.8603 120.997 82.4499C121.85 80.3731 123.18 78.492 124.894 76.9363C126.608 75.3805 128.666 74.1872 130.926 73.4383C134.685 72.3476 138.511 71.4626 142.382 70.7878C150.571 69.1597 159.102 69.8999 166.822 72.9081C167.192 72.7868 167.597 72.7868 167.967 72.9081C169.819 73.7649 171.466 74.9572 172.811 76.4141C174.155 77.8711 175.171 79.5631 175.796 81.3898C177.073 86.5694 177.966 91.8238 178.469 97.1161C178.563 97.9974 178.563 98.8853 178.469 99.7666C177.132 103.124 177.132 106.305 177.132 110.369Z" fill="#C7C7C7"/>
<path d="M163.001 76.0885C159.212 76.7096 155.334 76.7096 151.545 76.0885C148.49 76.0885 145.435 76.0885 142.381 75.0283H137.798C134.17 75.0283 131.879 78.5624 130.352 81.5663C130.747 83.6 131.738 85.4945 133.215 87.0439C132.136 92.5206 131.816 98.1021 132.261 103.654V104.891C132.261 104.891 132.261 106.658 132.261 107.541C132.261 108.425 129.779 109.131 127.869 109.838H125.769H124.433L121.187 110.898H118.895H117.75C117.839 110.55 117.839 110.187 117.75 109.838C117.75 109.838 117.75 109.838 117.75 108.778V106.304C117.66 105.659 117.66 105.006 117.75 104.361C116.405 99.2096 115.701 93.9332 115.65 88.6342C115.377 83.6556 117.074 78.7558 120.423 74.8516C124.639 70.4399 130.142 67.2493 136.27 65.6632C145.395 63.3562 155.022 63.3562 164.147 65.6632C165.494 66.4078 166.561 67.5184 167.202 68.8438C165.674 73.2613 164.147 75.0283 163.001 76.0885Z" fill="#676868"/>
<path d="M175.985 119.734C174.956 129.436 172.449 138.954 168.539 148.006C162.258 149.172 155.833 149.529 149.446 149.066H146.2C140.45 148.05 134.822 146.511 129.398 144.472C126.462 136.691 124.477 128.63 123.479 120.441C123.479 120.441 123.479 120.441 123.479 119.027L117.751 113.726C117.324 112.096 117.005 110.444 116.796 108.778V107.188C118.597 106.123 120.61 105.402 122.716 105.068C125.432 104.629 128.209 104.629 130.925 105.068V106.304C131.662 111.412 133.478 116.336 136.272 120.794C139.899 120.794 143.718 120.794 147.536 120.794L157.274 119.557H158.802C162.727 119.025 166.714 119.025 170.639 119.557C172.42 119.357 174.224 119.417 175.985 119.734Z" fill="#676868"/>
<path d="M156.892 92.6982C153.092 93.3594 149.422 94.551 146.009 96.2321C144.632 96.8718 143.294 97.5797 142 98.3525C142.403 99.0813 142.849 99.7892 143.336 100.473C147.124 98.7537 151.091 97.3921 155.174 96.4088H156.32H158.802L156.892 92.6982ZM175.986 96.7623C174.959 95.7303 173.727 94.8904 172.358 94.2884L170.83 96.4088C172.779 97.1313 174.585 98.1462 176.177 99.4126C176.221 98.4666 176.157 97.519 175.986 96.5855V96.7623Z" fill="#714B3C"/>
<path d="M174.65 100.119C174.561 99.9301 174.414 99.7691 174.228 99.656C174.041 99.543 173.823 99.4828 173.6 99.4828C173.377 99.4828 173.159 99.543 172.972 99.656C172.786 99.7691 172.639 99.9301 172.55 100.119C172.354 100.754 172.354 101.428 172.55 102.063C172.442 102.707 172.442 103.362 172.55 104.006C173.765 103.01 174.517 101.617 174.65 100.119ZM155.557 100.119C155.674 99.8348 155.674 99.5203 155.557 99.2358C155.08 99.2071 154.604 99.289 154.17 99.4742C153.737 99.6593 153.36 99.9418 153.075 100.296C152.696 101.266 152.696 102.329 153.075 103.3C152.99 103.465 152.946 103.646 152.946 103.83C152.946 104.013 152.99 104.194 153.075 104.36C153.22 104.437 153.385 104.478 153.552 104.478C153.72 104.478 153.884 104.437 154.03 104.36H155.175C156.249 103.098 156.852 101.548 156.893 99.9426L155.557 100.119Z" fill="#3B89AB"/>
<path d="M148.874 123.621C153.769 125.223 158.966 125.885 164.148 125.565C163.823 126.059 163.377 126.477 162.847 126.784C162.316 127.09 161.716 127.278 161.093 127.332C158.89 127.516 156.67 127.282 154.569 126.644C152.468 126.006 150.53 124.977 148.874 123.621Z" fill="#47525A"/>
<path d="M127.297 116.552C127.197 117.394 126.838 118.191 126.262 118.849C125.687 119.506 124.919 119.997 124.051 120.263H123.096C121.657 120.181 120.299 119.616 119.278 118.673C117.249 117.301 115.717 115.391 114.887 113.195C114.285 112.196 113.969 111.07 113.969 109.926C113.969 108.782 114.285 107.657 114.887 106.657V105.597C115.69 104.96 116.649 104.515 117.68 104.299C118.712 104.084 119.785 104.105 120.805 104.36H122.142C123.807 105.689 124.949 107.491 125.388 109.484C126.649 111.657 127.305 114.086 127.297 116.552Z" fill="#C7C7C7"/>
<path d="M166.25 103.653C166.338 104.677 166.735 105.656 167.395 106.481C169.042 109.095 169.712 112.137 169.305 115.139C169.305 115.139 169.305 116.906 168.159 117.259C167.605 117.449 166.995 117.449 166.441 117.259H163.195C163.195 117.259 161.094 117.259 160.713 117.259C160.623 116.911 160.623 116.548 160.713 116.199C160.628 115.376 160.628 114.548 160.713 113.725H159.567V114.962C159.332 115.402 159.209 115.885 159.209 116.376C159.209 116.866 159.332 117.35 159.567 117.789C161.075 118.409 162.693 118.768 164.34 118.85H169.305H170.641C172.36 118.85 172.169 116.376 172.169 114.962C172.26 113.668 172.26 112.369 172.169 111.075C171.691 108.603 170.65 106.254 169.114 104.184C168.891 103.492 168.891 102.755 169.114 102.063C168.927 101.427 168.927 100.756 169.114 100.119C169.469 99.4778 169.994 98.9305 170.641 98.5292C169.488 98.9513 168.474 99.6471 167.703 100.547C166.933 101.446 166.431 102.518 166.25 103.653Z" fill="#717070"/>
<path style="mix-blend-mode:screen" d="M156.893 99.9433H146.392V105.244C146.297 106.48 146.297 107.72 146.392 108.955C151.285 109.305 156.2 109.305 161.093 108.955C161.501 107.739 161.82 106.5 162.048 105.244C162.138 104.599 162.138 103.946 162.048 103.301C162.152 102.183 162.152 101.06 162.048 99.9433H156.893ZM177.704 99.9433H171.404V104.007C171.311 104.415 171.311 104.836 171.404 105.244C171.309 106.48 171.309 107.72 171.404 108.955H177.323H185.151C186.125 106.029 186.702 103.002 186.869 99.9433H177.704Z" fill="url(#paint23_linear_528_14536)"/>
<path d="M146.009 104.714L124.625 105.597L122.334 104.537L146.009 103.654V104.714Z" fill="#86837E"/>
<path d="M160.903 105.774C162.104 105.052 163.454 104.569 164.867 104.356C166.281 104.143 167.727 104.205 169.113 104.537C170.067 104.537 171.022 104.538 171.213 106.128C171.415 105.905 171.526 105.623 171.526 105.333C171.526 105.042 171.415 104.76 171.213 104.537C170.803 103.999 170.19 103.621 169.495 103.477C168.088 102.875 166.557 102.564 165.008 102.564C163.458 102.564 161.927 102.875 160.521 103.477L160.903 105.774Z" fill="#86837E"/>
<g style="mix-blend-mode:multiply">
<path d="M155.747 98.5294L154.41 99.5896H152.883C151.478 99.8743 150.127 100.351 148.874 101.003C147.833 101.485 147.018 102.302 146.582 103.3C146.662 106.598 147.241 109.869 148.301 113.019V117.083C148.587 121.143 148.587 125.215 148.301 129.275C148.301 131.749 148.301 134.4 148.301 136.873C148.301 139.347 148.301 141.998 148.301 144.472V146.769C142.55 145.752 136.922 144.214 131.499 142.174C128.563 134.394 126.578 126.333 125.58 118.143H124.625C123.185 118.061 121.828 117.496 120.807 116.553C118.777 115.181 117.246 113.27 116.415 111.075C115.813 110.076 115.497 108.95 115.497 107.806C115.497 106.662 115.813 105.537 116.415 104.537C115.071 99.3861 114.366 94.1099 114.315 88.8109C115.659 85.347 117.523 82.0755 119.852 79.0924C122.695 75.6175 126.11 72.5766 129.971 70.0807L133.408 68.3137C134.554 68.3137 140.664 65.8399 141.427 68.3137C141.427 70.2574 142.764 72.201 143.336 74.1447C145.176 80.7358 146.264 87.4874 146.582 94.2885L156.129 92.3449C157.015 92.3918 157.845 92.7625 158.436 93.3756C159.026 93.9886 159.33 94.7937 159.279 95.6139C159.229 96.434 158.828 97.2018 158.166 97.7486C157.503 98.2954 156.633 98.5763 155.747 98.5294Z" fill="#F6E3D3"/>
</g>
<path d="M124.816 110.368C124.662 109.591 124.303 108.861 123.77 108.245C123.237 107.628 122.546 107.143 121.761 106.834C120.647 106.484 119.438 106.484 118.324 106.834C117.478 107.18 116.703 107.658 116.033 108.248C116.033 108.248 116.033 109.485 116.033 110.015C115.861 110.713 115.861 111.437 116.033 112.135C116.033 112.135 116.033 113.195 117.179 113.902C116.386 112.425 116.055 110.773 116.224 109.131C116.224 107.364 119.088 107.364 120.615 107.541C122.143 107.718 120.615 107.541 121.952 107.541C122.069 107.729 122.131 107.942 122.131 108.159C122.131 108.377 122.069 108.59 121.952 108.778C122.404 108.935 122.784 109.232 123.027 109.618C123.271 110.004 123.363 110.456 123.288 110.898C123.249 111.366 123.066 111.814 122.762 112.19C122.458 112.565 122.044 112.853 121.57 113.019C121.57 113.019 121.57 113.019 122.716 113.019H123.67C123.856 112.66 123.953 112.268 123.953 111.87C123.953 111.472 123.856 111.08 123.67 110.722C124.056 110.616 124.439 110.499 124.816 110.368Z" fill="#717070"/>
<path d="M120.997 113.548C119.619 112.33 118.742 110.706 118.516 108.954C118.516 108.954 118.516 107.011 118.516 107.364C118.516 107.718 118.516 108.954 118.516 109.484C118.791 111.07 119.671 112.512 120.997 113.548Z" fill="#717070"/>
<path d="M205.199 244.484C205.199 244.484 206.154 244.484 206.535 244.484C211.882 231.232 216.655 217.802 220.664 204.196C220.722 203.432 220.722 202.664 220.664 201.899V199.956C220.935 199.432 221.076 198.858 221.076 198.277C221.076 197.696 220.935 197.122 220.664 196.598C220.24 196.142 219.712 195.778 219.118 195.534C218.524 195.289 217.878 195.17 217.228 195.185L215.7 199.779C215.787 200.661 215.787 201.548 215.7 202.429C211.253 216.231 207.746 230.276 205.199 244.484Z" fill="#909192"/>
<path d="M214.171 202.606C214.249 201.93 214.588 201.303 215.126 200.839C217.053 200.989 218.869 201.736 220.281 202.959C220.339 203.724 220.339 204.492 220.281 205.257C219.103 204.549 217.815 204.013 216.462 203.666C216.683 204.835 216.683 206.031 216.462 207.2C215.892 210.255 214.728 213.189 213.026 215.859H212.071L214.171 202.606Z" fill="#86837E"/>
<path d="M161.094 222.219H167.777C171.642 227.705 173.329 234.263 172.55 240.773C169.434 240.602 166.31 240.602 163.194 240.773C162.239 235.119 161.858 228.05 161.094 222.219Z" fill="#343637"/>
<path d="M166.44 241.303H164.912C134.744 241.303 119.279 241.303 94.4573 241.303C82.9149 226.618 73.5404 210.573 66.5811 193.594C63.4121 187.193 61.2268 180.412 60.0891 173.45C58.8796 166.395 60.658 159.179 65.0536 153.306C67.7979 149.844 71.6848 147.301 76.1278 146.062C79.2517 145.264 82.5506 145.264 85.6745 146.062C96.5669 157.392 104.532 170.867 108.968 185.466C113.169 196.421 116.224 205.433 120.615 216.389C127.68 218.156 135.699 220.099 142.573 222.22C149.446 224.34 152.31 221.336 161.666 222.22C165.926 227.745 167.642 234.608 166.44 241.303Z" fill="#F4F4F4"/>
<g style="mix-blend-mode:multiply">
<path d="M164.912 241.127C134.744 241.127 119.279 241.127 94.4572 241.127C82.9149 226.442 73.5403 210.397 66.5811 193.418C63.4121 187.017 61.2268 180.236 60.0891 173.274C58.8796 166.219 60.658 159.003 65.0536 153.131C67.7978 149.668 71.6848 147.125 76.1278 145.886C79.6565 172.442 86.9092 198.459 97.7031 223.28C101.13 220.051 105.641 217.995 110.496 217.449C105.742 219.54 101.998 223.193 99.9945 227.698C116.524 229.581 133.205 230.054 149.828 229.112C151.967 228.612 154.218 228.716 156.293 229.408C158.368 230.101 160.173 231.351 161.475 232.999C163.167 235.482 164.334 238.241 164.912 241.127Z" fill="#FEEADC"/>
</g>
<path d="M15.7921 253.142C25.4481 252.796 35.1049 253.809 44.4323 256.146C44.3506 272.608 39.7518 288.781 31.0669 303.148C33.1823 302.548 35.4433 302.548 37.5586 303.148C39.4656 300.936 41.2499 298.636 42.9048 296.257C52.8844 282.118 57.7641 265.415 56.8429 248.548C44.9965 247.231 33.0689 246.641 21.1383 246.781H14.0738C13.8288 247.893 13.856 249.041 14.1533 250.142C14.4507 251.243 15.0106 252.268 15.7921 253.142Z" fill="url(#paint24_linear_528_14536)"/>
<path d="M15.7936 253.143C25.4495 252.797 35.1062 253.809 44.4336 256.146C44.3519 272.609 39.753 288.782 31.0683 303.149C33.1836 302.549 35.4446 302.549 37.56 303.149C39.4669 300.937 41.2512 298.637 42.9061 296.257H40.0422C47.7898 282.398 50.4697 266.587 47.6794 251.199C39.2783 251.199 30.8774 249.255 22.4764 249.255C22.1457 248.545 21.6944 247.889 21.1397 247.311H14.0753C13.9154 248.34 13.9854 249.389 14.281 250.392C14.5765 251.395 15.0914 252.331 15.7936 253.143Z" fill="#1F2D3C"/>
<path d="M95.0308 224.163C95.0308 220.629 98.6586 217.979 102.286 216.918C105.904 215.921 109.721 215.7 113.445 216.273C117.169 216.846 120.703 218.198 123.778 220.226C126.853 222.253 129.387 224.903 131.188 227.974C132.989 231.045 134.01 234.455 134.172 237.946C134.172 240.066 131.499 240.95 129.208 240.773C127.043 240.225 125.026 239.261 123.289 237.946C117.052 234.061 110.142 231.192 102.859 229.464C99.7324 228.467 97.0038 226.62 95.0308 224.163Z" fill="url(#paint25_linear_528_14536)"/>
<path d="M144.098 243.247L114.122 222.573H67.7249L64.0972 225.93L106.675 243.247H144.098Z" fill="url(#paint26_linear_528_14536)"/>
<path d="M124.814 245.72C119.646 238.79 113.762 232.34 107.248 226.46H64.0972C66.8463 233.542 70.2313 240.398 74.2166 246.957L124.814 245.72Z" fill="#313F4D"/>
<path d="M340.577 219.393L346.304 244.308H351.077L343.822 220.63L340.577 219.393Z" fill="#526976"/>
<path d="M342.104 220.63L346.304 244.308H328.356L325.11 221.867L342.104 220.63Z" fill="url(#paint27_linear_528_14536)"/>
<path d="M396.327 152.423L378.57 219.393H276.612L285.204 157.724L396.327 152.423Z" fill="url(#paint28_linear_528_14536)"/>
<path d="M396.327 152.423L404.347 155.427L384.108 221.867H280.622L276.612 219.393H378.571L396.327 152.423Z" fill="#526976"/>
<path d="M392.509 155.074L377.425 212.501L281.386 213.561L288.26 159.314L392.509 155.074Z" fill="#526976"/>
<path d="M376.282 211.442L390.793 156.31L289.599 160.551L282.916 212.325L376.282 211.442Z" fill="#84CDDE"/>
<path style="mix-blend-mode:screen" d="M383.534 154.19L347.829 219.393H318.426L333.319 155.427L383.534 154.19Z" fill="url(#paint29_linear_528_14536)"/>
<path d="M294.177 217.802L295.705 214.622H280.622V217.802H294.177Z" fill="#526976"/>
<path d="M281.386 215.153V217.096H293.796L294.751 215.153H281.386Z" fill="#50504C"/>
<path d="M408.378 407.981L396.596 269.556C396.253 264.778 394.183 260.308 390.798 257.036C387.412 253.765 382.96 251.931 378.326 251.9H333.931C329.285 251.889 324.81 253.709 321.416 256.989C318.022 260.269 315.964 264.763 315.66 269.556L310.025 406.922H314.636L320.441 273.617C320.617 269.901 322.169 266.397 324.776 263.833C327.383 261.268 330.845 259.84 334.443 259.845H376.448C379.929 259.819 383.297 261.118 385.911 263.495C388.524 265.872 390.201 269.161 390.62 272.734L403.939 407.805L408.378 407.981Z" fill="url(#paint30_linear_528_14536)"/>
<path style="mix-blend-mode:screen" d="M349.925 271.697V272.933L344.389 408.11H342.097L347.825 271.697H349.925Z" fill="url(#paint31_linear_528_14536)"/>
<path d="M338.659 401.748L337.704 408.109H346.678L345.914 401.571L338.659 401.748Z" fill="url(#paint32_linear_528_14536)"/>
<path d="M100.95 260.564L390.022 260.564V252.613L100.95 252.613V260.564Z" fill="url(#paint33_linear_528_14536)"/>
<path d="M52.3838 241.209L54.4351 252.969H415.949L418 241.209H52.3838Z" fill="url(#paint34_linear_528_14536)"/>
<path d="M165.485 241.481L168.349 252.613H54.3617L52.0703 241.481H165.485Z" fill="#49A9A9"/>
<path d="M390.021 260.564H382.766L378.565 256.677H160.52L158.801 260.564L117.56 260.388V252.613H390.021V260.564Z" fill="#476476"/>
<path d="M168.348 408.109L155.174 269.576C154.793 264.824 152.505 260.376 148.76 257.106C145.015 253.836 140.083 251.981 134.935 251.906H84.1468C78.9718 251.899 73.9902 253.726 70.226 257.012C66.4617 260.299 64.2009 264.795 63.908 269.576L57.416 407.049H62.5713L69.0629 273.64C69.3043 269.936 71.0541 266.454 73.9595 263.897C76.8649 261.339 80.7099 259.896 84.7196 259.858H131.689C135.591 259.864 139.361 261.172 142.306 263.541C145.252 265.91 147.177 269.182 147.727 272.757L162.62 407.933L168.348 408.109Z" fill="url(#paint35_linear_528_14536)"/>
<path style="mix-blend-mode:screen" d="M152.5 268.163L167.011 407.226H165.101L150.399 268.163H152.5Z" fill="url(#paint36_linear_528_14536)"/>
<path d="M168.349 401.748L169.304 408.109H160.521V401.748H168.349Z" fill="url(#paint37_linear_528_14536)"/>
<path style="mix-blend-mode:screen" d="M68.2987 271.697L68.1079 272.933L62.5708 408.11H60.2798L66.0077 271.697H68.2987Z" fill="url(#paint38_linear_528_14536)"/>
<path d="M56.8427 401.748L55.8882 408.109H64.8621L64.0985 401.571L56.8427 401.748Z" fill="url(#paint39_linear_528_14536)"/>
<path d="M354.926 260.452H379.879L390.205 256.71C387.552 254.578 384.317 253.276 380.912 252.969H354.926V260.452Z" fill="#476476"/>
<path style="mix-blend-mode:screen" d="M330.927 241.209V252.969H394.635L398.757 241.209H330.927ZM289.713 241.209L290.916 252.969H322.169V241.209H289.713Z" fill="url(#paint40_linear_528_14536)"/>
<path d="M294.561 230.349L302.772 241.834L297.044 242.011L288.26 233.883L294.561 230.349Z" fill="#1F2D3C"/>
<path d="M302.962 224.693L305.444 228.051L277.567 241.833L281.004 237.769L302.962 224.693Z" fill="#313F4D"/>
<path d="M313.076 237.77L249.687 237.24L243.958 241.657L309.639 241.834L313.076 237.77Z" fill="url(#paint41_linear_528_14536)"/>
<path d="M302.964 224.693L281.006 237.769L217.617 237.239L240.72 226.814L302.964 224.693Z" fill="url(#paint42_linear_528_14536)"/>
<path d="M296.852 226.285L240.909 227.521L221.052 237.063L279.859 236.71L296.852 226.285Z" fill="url(#paint43_linear_528_14536)"/>
<path d="M295.708 226.637L279.86 236.356L222.39 236.709L241.101 227.874L295.708 226.637Z" fill="url(#paint44_linear_528_14536)"/>
<path d="M226.59 236.709L231.745 234.059H236.709L231.936 236.533L236.709 234.059H241.864L237.282 236.356L241.673 234.059H246.638L242.437 236.356L246.638 234.059H251.602L247.783 236.356L251.793 234.059H256.757L253.129 236.356L256.757 234.059H261.721L258.476 236.179L261.912 234.059H267.067L263.822 236.002L267.067 234.059H277.569L274.514 236.002L277.569 234.059H282.342H277.378L280.624 231.938H285.97H280.433L283.87 229.641H289.788H283.87L287.115 227.521L283.87 229.641H278.905L282.151 227.344L278.905 229.641H273.941L277.378 227.521L274.132 229.641H269.168L272.605 227.697L269.359 229.641H264.394L267.831 227.521L264.585 229.641H258.476L261.912 227.697L258.666 229.641H253.702L257.139 227.874L253.893 229.641H249.12L252.366 228.051L249.12 229.641H244.346L247.592 227.874L244.346 229.641H240.91H244.346L240.91 231.408H237.282H240.719L236.709 233.352H232.891H236.709L226.59 236.709ZM245.683 229.641L242.246 231.408H237.282L240.719 229.641H245.683ZM251.22 229.641L247.783 231.408H242.819L246.256 229.641H251.22ZM256.757 229.641L253.32 231.585H248.356L251.793 229.818L256.757 229.641ZM262.294 229.641L258.857 231.762H253.893L257.33 229.818L262.294 229.641ZM267.831 229.641L264.394 231.762H259.43L262.867 229.641H267.831ZM273.368 229.641L270.122 231.762H264.967L268.404 229.641H273.368ZM278.905 229.641L275.659 231.938H270.695L273.941 229.818L278.905 229.641ZM281.197 231.938H277.569L281.005 229.641H285.97L281.197 231.938ZM272.413 234.412L275.85 232.292H280.815L277.569 234.059L272.413 234.412ZM266.685 234.412L270.122 232.115H275.087L271.841 234.235L266.685 234.412ZM260.958 234.412L264.585 232.115H269.55L266.113 234.412H260.958ZM255.23 234.412L259.048 232.292H264.012L260.385 234.589L255.23 234.412ZM249.692 234.412L253.32 232.292H258.476L254.848 234.412H249.692ZM243.965 234.412L247.783 232.292H252.747L248.929 234.412H243.965ZM238.237 234.412L242.246 232.292H247.211L243.201 234.412H238.237ZM232.7 234.412L236.709 232.469H241.483L237.664 234.589L232.7 234.412Z" fill="url(#paint45_linear_528_14536)"/>
<path d="M276.885 241.209H357.064L344.413 229.449H289.535L276.885 241.209Z" fill="url(#paint46_linear_528_14536)"/>
<path style="mix-blend-mode:screen" d="M385.636 241.48L374.371 230.877H361.005V241.48H385.636Z" fill="url(#paint47_linear_528_14536)"/>
<path d="M361.005 230.1H365.015L369.216 207.836C369.216 203.596 364.442 203.596 364.06 207.836L361.005 230.1Z" fill="#313F4D"/>
<path d="M348.786 220.559L349.74 239.466V242.47H369.406L369.597 240.703L370.551 220.559H348.786Z" fill="url(#paint48_linear_528_14536)"/>
<path d="M349.741 239.466V242.47H369.407L369.598 240.703L359.67 239.466L358.524 220.559H353.369V239.466H349.741Z" fill="#313F4D"/>
<path style="mix-blend-mode:screen" d="M368.451 220.559L367.305 238.052H363.105L361.768 220.559H368.451Z" fill="url(#paint49_linear_528_14536)"/>
<path d="M326.621 229.127H329.675L327.766 211.456C327.766 208.276 323.566 209.336 323.948 211.456L326.621 229.127Z" fill="#313F4D"/>
<path d="M331.776 231.247H335.022V205.978C335.022 201.207 330.821 202.091 331.012 205.978L331.776 231.247Z" fill="#313F4D"/>
<path d="M324.332 224.179L325.096 239.199V241.496H340.751V240.082L341.515 224.179H324.332Z" fill="url(#paint50_linear_528_14536)"/>
<path d="M325.094 239.199V241.496H340.751V240.082L332.923 239.199L332.159 224.179H327.958V239.199H325.094Z" fill="#313F4D"/>
<path style="mix-blend-mode:screen" d="M339.797 224.179L339.033 237.962H335.596L334.642 224.179H339.797Z" fill="url(#paint51_linear_528_14536)"/>
<path d="M345.349 232.115L349.74 241.481H302.389L316.518 229.818L345.349 232.115Z" fill="#313F4D"/>
<path d="M241.779 146.661H241.001L241.057 86.8985H241.779V146.661Z" fill="#1D2A36"/>
<path d="M287.228 146.888H286.587V84.8989H287.228V146.888Z" fill="#1D2A36"/>
<path d="M333.383 146.888H332.101V83.5658H333.383V146.888Z" fill="#1D2A36"/>
<path d="M243.723 146.661H239.115L240.003 142.087H242.78L243.723 146.661Z" fill="#1D2A36"/>
<path d="M289.364 146.661H284.811L285.699 142.087H288.475L289.364 146.661Z" fill="#1D2A36"/>
<path d="M335.062 146.661H330.453L331.397 142.087H334.173L335.062 146.661Z" fill="#1D2A36"/>
<path d="M347.166 151.131H226.01L229.952 145.479H343.223L347.166 151.131Z" fill="#313F4D"/>
<path d="M349.331 151.902H223.844L223.122 149.076H350.052L349.331 151.902Z" fill="#405062"/>
<defs>
<linearGradient id="paint0_linear_528_14536" x1="80.3281" y1="336.545" x2="72.8849" y2="336.958" gradientUnits="userSpaceOnUse">
<stop stop-color="#C5DAE0"/>
<stop offset="0.2" stop-color="#9AB1BB"/>
<stop offset="0.39" stop-color="#79929F"/>
<stop offset="0.55" stop-color="#657F8D"/>
<stop offset="0.66" stop-color="#5E7887"/>
<stop offset="0.73" stop-color="#627C8A"/>
<stop offset="0.79" stop-color="#6E8795"/>
<stop offset="0.86" stop-color="#829AA6"/>
<stop offset="0.93" stop-color="#9EB5BE"/>
<stop offset="0.99" stop-color="#C2D7DD"/>
<stop offset="1" stop-color="#C5DAE0"/>
</linearGradient>
<linearGradient id="paint1_linear_528_14536" x1="-6087.05" y1="3265.13" x2="-6117.37" y2="3265.13" gradientUnits="userSpaceOnUse">
<stop stop-color="#526976"/>
<stop offset="1" stop-color="#313F4D"/>
</linearGradient>
<linearGradient id="paint2_linear_528_14536" x1="-31275.6" y1="6539.83" x2="-31541.2" y2="6539.83" gradientUnits="userSpaceOnUse">
<stop stop-color="#526976"/>
<stop offset="1" stop-color="#313F4D"/>
</linearGradient>
<linearGradient id="paint3_linear_528_14536" x1="66.5794" y1="137.757" x2="63.3081" y2="230.898" gradientUnits="userSpaceOnUse">
<stop stop-color="#DEDEDE"/>
<stop offset="1" stop-color="#606466"/>
</linearGradient>
<linearGradient id="paint4_linear_528_14536" x1="61483.1" y1="3548.87" x2="61482.2" y2="3598.77" gradientUnits="userSpaceOnUse">
<stop stop-color="#8C8C8C"/>
<stop offset="1" stop-color="#808080"/>
</linearGradient>
<linearGradient id="paint5_linear_528_14536" x1="-42398.9" y1="1882.31" x2="-42842.9" y2="1882.31" gradientUnits="userSpaceOnUse">
<stop stop-color="#526976"/>
<stop offset="1" stop-color="#313F4D"/>
</linearGradient>
<linearGradient id="paint6_linear_528_14536" x1="-6513.59" y1="2268.92" x2="-6520.02" y2="2238.72" gradientUnits="userSpaceOnUse">
<stop stop-color="#526976"/>
<stop offset="1" stop-color="#313F4D"/>
</linearGradient>
<linearGradient id="paint7_linear_528_14536" x1="67.5359" y1="123.797" x2="63.7735" y2="206.875" gradientUnits="userSpaceOnUse">
<stop stop-color="#445A55"/>
<stop offset="0.2" stop-color="#3B4F4A"/>
<stop offset="0.55" stop-color="#25302E"/>
<stop offset="1" stop-color="#010101"/>
</linearGradient>
<radialGradient id="paint8_radial_528_14536" cx="0" cy="0" r="1" gradientUnits="userSpaceOnUse" gradientTransform="translate(-4853.82 2760.23) rotate(180) scale(22.8549 21.151)">
<stop stop-color="#526976"/>
<stop offset="1" stop-color="#313F4D"/>
</radialGradient>
<linearGradient id="paint9_linear_528_14536" x1="-2090.44" y1="2896.92" x2="-2092.64" y2="2918.21" gradientUnits="userSpaceOnUse">
<stop stop-color="#526976"/>
<stop offset="1" stop-color="#313F4D"/>
</linearGradient>
<radialGradient id="paint10_radial_528_14536" cx="0" cy="0" r="1" gradientUnits="userSpaceOnUse" gradientTransform="translate(-4853.82 2760.23) rotate(180) scale(22.8549 21.151)">
<stop stop-color="#526976"/>
<stop offset="1" stop-color="#313F4D"/>
</radialGradient>
<linearGradient id="paint11_linear_528_14536" x1="120.806" y1="362.167" x2="123.429" y2="384.306" gradientUnits="userSpaceOnUse">
<stop stop-color="#445A55"/>
<stop offset="0.35" stop-color="#293633"/>
<stop offset="0.78" stop-color="#0C100F"/>
<stop offset="1" stop-color="#010101"/>
</linearGradient>
<radialGradient id="paint12_radial_528_14536" cx="0" cy="0" r="1" gradientUnits="userSpaceOnUse" gradientTransform="translate(-4866.94 2760.23) rotate(180) scale(22.8545 21.151)">
<stop stop-color="#526976"/>
<stop offset="1" stop-color="#313F4D"/>
</radialGradient>
<linearGradient id="paint13_linear_528_14536" x1="-2078.72" y1="2896.92" x2="-2080.91" y2="2918.21" gradientUnits="userSpaceOnUse">
<stop stop-color="#526976"/>
<stop offset="1" stop-color="#313F4D"/>
</linearGradient>
<radialGradient id="paint14_radial_528_14536" cx="0" cy="0" r="1" gradientUnits="userSpaceOnUse" gradientTransform="translate(-4866.94 2760.23) rotate(180) scale(22.8545 21.151)">
<stop stop-color="#526976"/>
<stop offset="1" stop-color="#313F4D"/>
</radialGradient>
<linearGradient id="paint15_linear_528_14536" x1="7386.39" y1="2586.28" x2="7382.3" y2="2609.39" gradientUnits="userSpaceOnUse">
<stop stop-color="#445A55"/>
<stop offset="0.35" stop-color="#293633"/>
<stop offset="0.78" stop-color="#0C100F"/>
<stop offset="1" stop-color="#010101"/>
</linearGradient>
<radialGradient id="paint16_radial_528_14536" cx="0" cy="0" r="1" gradientUnits="userSpaceOnUse" gradientTransform="translate(-4861.76 2750.02) rotate(180) scale(22.8545 21.151)">
<stop stop-color="#526976"/>
<stop offset="1" stop-color="#313F4D"/>
</radialGradient>
<linearGradient id="paint17_linear_528_14536" x1="-2083" y1="2886.35" x2="-2085.2" y2="2907.85" gradientUnits="userSpaceOnUse">
<stop stop-color="#526976"/>
<stop offset="1" stop-color="#313F4D"/>
</linearGradient>
<radialGradient id="paint18_radial_528_14536" cx="0" cy="0" r="1" gradientUnits="userSpaceOnUse" gradientTransform="translate(-4861.76 2750.02) rotate(180) scale(22.8545 21.151)">
<stop stop-color="#526976"/>
<stop offset="1" stop-color="#313F4D"/>
</radialGradient>
<linearGradient id="paint19_linear_528_14536" x1="7396.92" y1="2568.45" x2="7392.86" y2="2591.48" gradientUnits="userSpaceOnUse">
<stop stop-color="#445A55"/>
<stop offset="0.35" stop-color="#293633"/>
<stop offset="0.78" stop-color="#0C100F"/>
<stop offset="1" stop-color="#010101"/>
</linearGradient>
<linearGradient id="paint20_linear_528_14536" x1="-52480.4" y1="2175.58" x2="-52979.5" y2="2249.37" gradientUnits="userSpaceOnUse">
<stop stop-color="#C5DAE0"/>
<stop offset="0.2" stop-color="#9AB1BB"/>
<stop offset="0.39" stop-color="#79929F"/>
<stop offset="0.55" stop-color="#657F8D"/>
<stop offset="0.66" stop-color="#5E7887"/>
<stop offset="0.73" stop-color="#627C8A"/>
<stop offset="0.79" stop-color="#6E8795"/>
<stop offset="0.86" stop-color="#829AA6"/>
<stop offset="0.93" stop-color="#9EB5BE"/>
<stop offset="0.99" stop-color="#C2D7DD"/>
<stop offset="1" stop-color="#C5DAE0"/>
</linearGradient>
<linearGradient id="paint21_linear_528_14536" x1="-15337.4" y1="2399.26" x2="-15394" y2="2339.87" gradientUnits="userSpaceOnUse">
<stop stop-color="#87B0B5"/>
<stop offset="0.11" stop-color="#7FA5AA"/>
<stop offset="0.32" stop-color="#68878B"/>
<stop offset="0.59" stop-color="#43575A"/>
<stop offset="0.91" stop-color="#111616"/>
<stop offset="1" stop-color="#010101"/>
</linearGradient>
<linearGradient id="paint22_linear_528_14536" x1="-6493.41" y1="2070.53" x2="-6480.86" y2="2046.27" gradientUnits="userSpaceOnUse">
<stop stop-color="#87B0B5"/>
<stop offset="0.11" stop-color="#7FA5AA"/>
<stop offset="0.32" stop-color="#68878B"/>
<stop offset="0.59" stop-color="#43575A"/>
<stop offset="0.91" stop-color="#111616"/>
<stop offset="1" stop-color="#010101"/>
</linearGradient>
<linearGradient id="paint23_linear_528_14536" x1="166.249" y1="98.7064" x2="165.594" y2="113.024" gradientUnits="userSpaceOnUse">
<stop stop-color="#E4F1E6"/>
<stop offset="0.57" stop-color="#656B66"/>
<stop offset="1" stop-color="#010101"/>
</linearGradient>
<linearGradient id="paint24_linear_528_14536" x1="-16367.1" y1="6499.03" x2="-16464.8" y2="6644.83" gradientUnits="userSpaceOnUse">
<stop stop-color="#526976"/>
<stop offset="1" stop-color="#313F4D"/>
</linearGradient>
<linearGradient id="paint25_linear_528_14536" x1="114.315" y1="205.786" x2="114.642" y2="231.232" gradientUnits="userSpaceOnUse">
<stop stop-color="#C5DAE0"/>
<stop offset="0.16" stop-color="#ABC1C9"/>
<stop offset="0.39" stop-color="#89A1AD"/>
<stop offset="0.62" stop-color="#718B98"/>
<stop offset="0.83" stop-color="#637D8B"/>
<stop offset="1" stop-color="#5E7887"/>
</linearGradient>
<linearGradient id="paint26_linear_528_14536" x1="-36203.3" y1="2486.59" x2="-36203.5" y2="2549.65" gradientUnits="userSpaceOnUse">
<stop stop-color="#526976"/>
<stop offset="1" stop-color="#313F4D"/>
</linearGradient>
<linearGradient id="paint27_linear_528_14536" x1="11449.3" y1="2873.53" x2="11450.4" y2="2823.57" gradientUnits="userSpaceOnUse">
<stop stop-color="#C5DAE0"/>
<stop offset="0.16" stop-color="#ABC1C9"/>
<stop offset="0.39" stop-color="#89A1AD"/>
<stop offset="0.62" stop-color="#718B98"/>
<stop offset="0.83" stop-color="#637D8B"/>
<stop offset="1" stop-color="#5E7887"/>
</linearGradient>
<linearGradient id="paint28_linear_528_14536" x1="318.045" y1="250.315" x2="335.329" y2="165.115" gradientUnits="userSpaceOnUse">
<stop stop-color="#74C8D7"/>
<stop offset="0.26" stop-color="#94D4DF"/>
<stop offset="0.76" stop-color="#CCEAED"/>
<stop offset="1" stop-color="#E2F2F3"/>
</linearGradient>
<linearGradient id="paint29_linear_528_14536" x1="358.331" y1="154.897" x2="342.197" y2="233.879" gradientUnits="userSpaceOnUse">
<stop stop-color="#89B9B5"/>
<stop offset="0.23" stop-color="#6D9490"/>
<stop offset="0.73" stop-color="#283635"/>
<stop offset="1" stop-color="#010101"/>
</linearGradient>
<linearGradient id="paint30_linear_528_14536" x1="51797.8" y1="19123.8" x2="51862.1" y2="17494.2" gradientUnits="userSpaceOnUse">
<stop stop-color="#C5DAE0"/>
<stop offset="0.16" stop-color="#ABC1C9"/>
<stop offset="0.39" stop-color="#89A1AD"/>
<stop offset="0.62" stop-color="#718B98"/>
<stop offset="0.83" stop-color="#637D8B"/>
<stop offset="1" stop-color="#5E7887"/>
</linearGradient>
<linearGradient id="paint31_linear_528_14536" x1="2495.1" y1="16675.4" x2="2918.61" y2="16379.7" gradientUnits="userSpaceOnUse">
<stop stop-color="#87B0B5"/>
<stop offset="0.11" stop-color="#7FA5AA"/>
<stop offset="0.32" stop-color="#68878B"/>
<stop offset="0.59" stop-color="#43575A"/>
<stop offset="0.91" stop-color="#111616"/>
<stop offset="1" stop-color="#010101"/>
</linearGradient>
<linearGradient id="paint32_linear_528_14536" x1="4016.2" y1="1190.32" x2="4023.01" y2="1190.69" gradientUnits="userSpaceOnUse">
<stop stop-color="#526976"/>
<stop offset="1" stop-color="#313F4D"/>
</linearGradient>
<linearGradient id="paint33_linear_528_14536" x1="-146731" y1="1149.76" x2="-146731" y2="1143" gradientUnits="userSpaceOnUse">
<stop stop-color="#C5DAE0"/>
<stop offset="0.16" stop-color="#ABC1C9"/>
<stop offset="0.39" stop-color="#89A1AD"/>
<stop offset="0.62" stop-color="#718B98"/>
<stop offset="0.83" stop-color="#637D8B"/>
<stop offset="1" stop-color="#5E7887"/>
</linearGradient>
<linearGradient id="paint34_linear_528_14536" x1="-190810" y1="1556.05" x2="-184102" y2="-339.003" gradientUnits="userSpaceOnUse">
<stop stop-color="#7CC5AB"/>
<stop offset="0.61" stop-color="#A6D3B2"/>
<stop offset="1" stop-color="#BCDBB5"/>
</linearGradient>
<linearGradient id="paint35_linear_528_14536" x1="59766.7" y1="19138.4" x2="59826" y2="17507.2" gradientUnits="userSpaceOnUse">
<stop stop-color="#C5DAE0"/>
<stop offset="0.16" stop-color="#ABC1C9"/>
<stop offset="0.39" stop-color="#89A1AD"/>
<stop offset="0.62" stop-color="#718B98"/>
<stop offset="0.83" stop-color="#637D8B"/>
<stop offset="1" stop-color="#5E7887"/>
</linearGradient>
<linearGradient id="paint36_linear_528_14536" x1="-2088.74" y1="16932.1" x2="-2575.27" y2="16409.1" gradientUnits="userSpaceOnUse">
<stop stop-color="#87B0B5"/>
<stop offset="0.11" stop-color="#7FA5AA"/>
<stop offset="0.32" stop-color="#68878B"/>
<stop offset="0.59" stop-color="#43575A"/>
<stop offset="0.91" stop-color="#111616"/>
<stop offset="1" stop-color="#010101"/>
</linearGradient>
<linearGradient id="paint37_linear_528_14536" x1="2095.69" y1="1169.28" x2="2089.02" y2="1169.52" gradientUnits="userSpaceOnUse">
<stop stop-color="#526976"/>
<stop offset="1" stop-color="#313F4D"/>
</linearGradient>
<linearGradient id="paint38_linear_528_14536" x1="2558.08" y1="16675.4" x2="2987.44" y2="16362.5" gradientUnits="userSpaceOnUse">
<stop stop-color="#87B0B5"/>
<stop offset="0.11" stop-color="#7FA5AA"/>
<stop offset="0.32" stop-color="#68878B"/>
<stop offset="0.59" stop-color="#43575A"/>
<stop offset="0.91" stop-color="#111616"/>
<stop offset="1" stop-color="#010101"/>
</linearGradient>
<linearGradient id="paint39_linear_528_14536" x1="3601.78" y1="1190.32" x2="3608.59" y2="1190.69" gradientUnits="userSpaceOnUse">
<stop stop-color="#526976"/>
<stop offset="1" stop-color="#313F4D"/>
</linearGradient>
<linearGradient id="paint40_linear_528_14536" x1="-51206.1" y1="1544.17" x2="-51206" y2="1566.44" gradientUnits="userSpaceOnUse">
<stop stop-color="#87B0B5"/>
<stop offset="0.11" stop-color="#7FA5AA"/>
<stop offset="0.32" stop-color="#68878B"/>
<stop offset="0.59" stop-color="#43575A"/>
<stop offset="0.91" stop-color="#111616"/>
<stop offset="1" stop-color="#010101"/>
</linearGradient>
<linearGradient id="paint41_linear_528_14536" x1="-30048.3" y1="2364.33" x2="-30299.7" y2="2367.13" gradientUnits="userSpaceOnUse">
<stop stop-color="#526976"/>
<stop offset="1" stop-color="#313F4D"/>
</linearGradient>
<linearGradient id="paint42_linear_528_14536" x1="-38731.3" y1="3446.62" x2="-38735.9" y2="3481.19" gradientUnits="userSpaceOnUse">
<stop stop-color="#526976"/>
<stop offset="1" stop-color="#313F4D"/>
</linearGradient>
<linearGradient id="paint43_linear_528_14536" x1="259.933" y1="194.57" x2="183.6" y2="195.421" gradientUnits="userSpaceOnUse">
<stop stop-color="#445965"/>
<stop offset="1" stop-color="#293541"/>
</linearGradient>
<linearGradient id="paint44_linear_528_14536" x1="258.755" y1="194.622" x2="184.979" y2="195.444" gradientUnits="userSpaceOnUse">
<stop stop-color="#667C88"/>
<stop offset="1" stop-color="#404F5D"/>
</linearGradient>
<linearGradient id="paint45_linear_528_14536" x1="32734" y1="1030.5" x2="32753.2" y2="1100.13" gradientUnits="userSpaceOnUse">
<stop stop-color="#445965"/>
<stop offset="1" stop-color="#293541"/>
</linearGradient>
<linearGradient id="paint46_linear_528_14536" x1="-35942.9" y1="1535.82" x2="-36318.9" y2="1535.82" gradientUnits="userSpaceOnUse">
<stop stop-color="#526976"/>
<stop offset="1" stop-color="#313F4D"/>
</linearGradient>
<linearGradient id="paint47_linear_528_14536" x1="13251.6" y1="1397.66" x2="13248.9" y2="1418.47" gradientUnits="userSpaceOnUse">
<stop stop-color="#445A55"/>
<stop offset="0.35" stop-color="#293633"/>
<stop offset="0.78" stop-color="#0C100F"/>
<stop offset="1" stop-color="#010101"/>
</linearGradient>
<linearGradient id="paint48_linear_528_14536" x1="-4840.19" y1="2633.59" x2="-4865.22" y2="2633.59" gradientUnits="userSpaceOnUse">
<stop stop-color="#526976"/>
<stop offset="1" stop-color="#313F4D"/>
</linearGradient>
<linearGradient id="paint49_linear_528_14536" x1="3859.24" y1="2127.49" x2="3861.52" y2="2155.84" gradientUnits="userSpaceOnUse">
<stop stop-color="#445A55"/>
<stop offset="0.35" stop-color="#293633"/>
<stop offset="0.78" stop-color="#0C100F"/>
<stop offset="1" stop-color="#010101"/>
</linearGradient>
<linearGradient id="paint50_linear_528_14536" x1="-2446.7" y1="2133.52" x2="-2462.17" y2="2133.52" gradientUnits="userSpaceOnUse">
<stop stop-color="#526976"/>
<stop offset="1" stop-color="#313F4D"/>
</linearGradient>
<linearGradient id="paint51_linear_528_14536" x1="3039.96" y1="1731.62" x2="3041.42" y2="1749.44" gradientUnits="userSpaceOnUse">
<stop stop-color="#445A55"/>
<stop offset="0.35" stop-color="#293633"/>
<stop offset="0.78" stop-color="#0C100F"/>
<stop offset="1" stop-color="#010101"/>
</linearGradient>
</defs>
</svg>
